<?xml version="1.0" encoding="UTF-8" standalone="no"?>
<svg
   xmlns:dc="http://purl.org/dc/elements/1.1/"
   xmlns:cc="http://creativecommons.org/ns#"
   xmlns:rdf="http://www.w3.org/1999/02/22-rdf-syntax-ns#"
   xmlns:svg="http://www.w3.org/2000/svg"
   xmlns="http://www.w3.org/2000/svg"
   xmlns:sodipodi="http://sodipodi.sourceforge.net/DTD/sodipodi-0.dtd"
   xmlns:inkscape="http://www.inkscape.org/namespaces/inkscape"
   version="1.1"
   id="Capa_1"
   x="0px"
   y="0px"
   viewBox="0 0 50 50"
   xml:space="preserve"
   sodipodi:docname="facebook.svg"
   width="50"
   height="50"
   inkscape:version="1.0.2 (e86c870879, 2021-01-15, custom)"><metadata
   id="metadata43"><rdf:RDF><cc:Work
       rdf:about=""><dc:format>image/svg+xml</dc:format><dc:type
         rdf:resource="http://purl.org/dc/dcmitype/StillImage" /><dc:title></dc:title></cc:Work></rdf:RDF></metadata><defs
   id="defs41" /><sodipodi:namedview
   pagecolor="#ffffff"
   bordercolor="#666666"
   borderopacity="1"
   objecttolerance="10"
   gridtolerance="10"
   guidetolerance="10"
   inkscape:pageopacity="0"
   inkscape:pageshadow="2"
   inkscape:window-width="1920"
   inkscape:window-height="992"
   id="namedview39"
   showgrid="false"
   inkscape:zoom="1.2519531"
   inkscape:cx="103.039"
   inkscape:cy="256"
   inkscape:window-x="0"
   inkscape:window-y="0"
   inkscape:window-maximized="1"
   inkscape:current-layer="Capa_1" />
<g
   id="g6"
   transform="scale(0.09765625)"
   style="stroke-width:10.24;fill:#ffffff">
	<g
   id="g4"
   style="stroke-width:10.24;fill:#ffffff">
		<path
   d="M 452,0 H 60 C 26.916,0 0,26.916 0,60 v 392 c 0,33.084 26.916,60 60,60 h 392 c 33.084,0 60,-26.916 60,-60 V 60 C 512,26.916 485.084,0 452,0 Z m 20,452 c 0,11.028 -8.972,20 -20,20 H 338 V 309 h 61.79 L 410,247 h -72 v -43 c 0,-16.975 13.025,-30 30,-30 h 41 v -62 h -41 c -50.923,0 -91.978,41.25 -91.978,92.174 V 247 H 216 v 62 h 60.022 V 472 H 60 C 48.972,472 40,463.028 40,452 V 60 C 40,48.972 48.972,40 60,40 h 392 c 11.028,0 20,8.972 20,20 z"
   id="path2"
   style="stroke-width:10.24;fill:#ffffff" />
	</g>
</g>
<g
   id="g8">
</g>
<g
   id="g10">
</g>
<g
   id="g12">
</g>
<g
   id="g14">
</g>
<g
   id="g16">
</g>
<g
   id="g18">
</g>
<g
   id="g20">
</g>
<g
   id="g22">
</g>
<g
   id="g24">
</g>
<g
   id="g26">
</g>
<g
   id="g28">
</g>
<g
   id="g30">
</g>
<g
   id="g32">
</g>
<g
   id="g34">
</g>
<g
   id="g36">
</g>
</svg>
