<?xml version="1.0" encoding="UTF-8" standalone="no"?>
<svg
   xmlns:dc="http://purl.org/dc/elements/1.1/"
   xmlns:cc="http://creativecommons.org/ns#"
   xmlns:rdf="http://www.w3.org/1999/02/22-rdf-syntax-ns#"
   xmlns:svg="http://www.w3.org/2000/svg"
   xmlns="http://www.w3.org/2000/svg"
   xmlns:sodipodi="http://sodipodi.sourceforge.net/DTD/sodipodi-0.dtd"
   xmlns:inkscape="http://www.inkscape.org/namespaces/inkscape"
   height="37.507156pt"
   viewBox="0 0 37.5 37.573216"
   width="37.5pt"
   version="1.1"
   id="svg8"
   sodipodi:docname="instagram.svg"
   inkscape:version="1.0.2 (e86c870879, 2021-01-15, custom)">
  <metadata
     id="metadata14">
    <rdf:RDF>
      <cc:Work
         rdf:about="">
        <dc:format>image/svg+xml</dc:format>
        <dc:type
           rdf:resource="http://purl.org/dc/dcmitype/StillImage" />
        <dc:title />
      </cc:Work>
    </rdf:RDF>
  </metadata>
  <defs
     id="defs12" />
  <sodipodi:namedview
     pagecolor="#ffffff"
     bordercolor="#666666"
     borderopacity="1"
     objecttolerance="10"
     gridtolerance="10"
     guidetolerance="10"
     inkscape:pageopacity="0"
     inkscape:pageshadow="2"
     inkscape:window-width="1920"
     inkscape:window-height="992"
     id="namedview10"
     showgrid="false"
     inkscape:zoom="0.94080235"
     inkscape:cx="341.59566"
     inkscape:cy="340.66667"
     inkscape:window-x="0"
     inkscape:window-y="0"
     inkscape:window-maximized="1"
     inkscape:current-layer="svg8"
     inkscape:document-rotation="0" />
  <path
     d="M 37.020572,11.046662 C 36.93255,9.0502464 36.609706,7.6777284 36.14723,6.4884232 35.670132,5.2260049 34.936134,4.0957634 33.974483,3.1561893 33.034909,2.2019925 31.897213,1.4605404 30.649417,0.99089662 29.45323,0.52842087 28.08788,0.20557663 26.091464,0.11755425 24.080139,0.02207725 23.441619,0 18.340336,0 13.239053,0 12.600533,0.02207725 10.596662,0.11009963 8.6002465,0.198122 7.2277284,0.52125288 6.0387099,0.983442 4.7760049,1.4605404 3.6457634,2.1945379 2.7061893,3.1561893 1.7519925,4.0957634 1.010827,5.2334595 0.5408966,6.4812553 0.07842088,7.6777284 -0.24442337,9.0427919 -0.33244575,11.039208 -0.42792275,13.050533 -0.45,13.689053 -0.45,18.790336 c 0,5.101283 0.0220773,5.739803 0.11009963,7.743674 0.0880224,1.996416 0.41115325,3.368934 0.87362897,4.558239 0.4770984,1.262418 1.2182639,2.39266 2.1724607,3.332234 0.9395741,0.954196 2.0772702,1.695648 3.325066,2.165292 1.1964731,0.462476 2.5615367,0.78532 4.5582387,0.873343 2.003584,0.08831 2.642391,0.1101 7.743674,0.1101 5.101282,0 5.739803,-0.02179 7.743673,-0.1101 1.996416,-0.08802 3.368935,-0.410867 4.557953,-0.873343 2.525123,-0.976274 4.521539,-2.972689 5.497813,-5.497526 0.46219,-1.196474 0.78532,-2.561823 0.873343,-4.558239 0.08802,-2.003871 0.110099,-2.642391 0.110099,-7.743674 0,-5.101283 -0.0075,-5.739803 -0.09548,-7.743674 z M 33.637016,26.38721 c -0.08085,1.834994 -0.389076,2.82589 -0.645975,3.486488 -0.631353,1.636872 -1.930471,2.93599 -3.567343,3.567343 -0.660597,0.256899 -1.658662,0.56512 -3.486488,0.645688 -1.981793,0.08831 -2.576159,0.1101 -7.589419,0.1101 -5.013261,0 -5.615081,-0.02179 -7.589706,-0.1101 C 8.9230909,34.006161 7.9321943,33.69794 7.2715965,33.441041 6.4570311,33.139987 5.715579,32.662889 5.1137584,32.038991 4.4898605,31.429716 4.0127621,30.695718 3.7117085,29.881153 3.4548094,29.220555 3.1465878,28.222204 3.06602,26.394665 2.977711,24.412871 2.9559204,23.818219 2.9559204,18.804959 c 0,-5.01326 0.021791,-5.615081 0.1100996,-7.58942 C 3.1465878,9.3805453 3.4548094,8.3896487 3.7117085,7.7290509 4.0127621,6.9141991 4.4898605,6.1730336 5.121213,5.5709264 5.7302016,4.9470285 6.4641991,4.4699301 7.279051,4.1691631 7.9396488,3.912264 8.9379999,3.6040424 10.765539,3.523188 c 1.981793,-0.088022 2.576446,-0.1100996 7.58942,-0.1100996 5.020714,0 5.615081,0.022077 7.589706,0.1100996 1.834993,0.080854 2.82589,0.389076 3.486488,0.6459751 0.814565,0.300767 1.556017,0.7778654 2.157838,1.4017633 0.623898,0.6092752 1.100996,1.3432727 1.40205,2.1581245 0.256899,0.6605978 0.565121,1.6586626 0.645975,3.4864881 0.08802,1.981793 0.110099,2.57616 0.110099,7.58942 0,5.01326 -0.02208,5.600458 -0.110099,7.582251 z m 0,0"
     id="path2"
     style="stroke-width:0.999998;fill:#ffffff" />
  <path
     d="m 18.340336,9.1382689 c -5.32865,0 -9.652067,4.3231311 -9.652067,9.6520671 0,5.328936 4.323417,9.652067 9.652067,9.652067 5.328936,0 9.652067,-4.323131 9.652067,-9.652067 0,-5.328936 -4.323131,-9.6520671 -9.652067,-9.6520671 z m 0,15.9131231 c -3.456956,0 -6.261056,-2.803813 -6.261056,-6.261056 0,-3.457243 2.8041,-6.261056 6.261056,-6.261056 3.457243,0 6.261056,2.803813 6.261056,6.261056 0,3.457243 -2.803813,6.261056 -6.261056,6.261056 z m 0,0"
     id="path4"
     style="stroke-width:0.999998;fill:#ffffff" />
  <path
     d="m 30.627626,8.7566474 c 0,1.2443556 -1.00896,2.2533156 -2.253601,2.2533156 -1.244356,0 -2.253315,-1.00896 -2.253315,-2.2533156 0,-1.2446417 1.008959,-2.2533149 2.253315,-2.2533149 1.244641,0 2.253601,1.0086732 2.253601,2.2533149 z m 0,0"
     id="path6"
     style="stroke-width:0.999998;fill:#ffffff" />
</svg>
