<?xml version="1.0" encoding="UTF-8" standalone="no"?>
<svg
   xmlns:dc="http://purl.org/dc/elements/1.1/"
   xmlns:cc="http://creativecommons.org/ns#"
   xmlns:rdf="http://www.w3.org/1999/02/22-rdf-syntax-ns#"
   xmlns:svg="http://www.w3.org/2000/svg"
   xmlns="http://www.w3.org/2000/svg"
   xmlns:sodipodi="http://sodipodi.sourceforge.net/DTD/sodipodi-0.dtd"
   xmlns:inkscape="http://www.inkscape.org/namespaces/inkscape"
   version="1.1"
   id="Capa_1"
   x="0px"
   y="0px"
   viewBox="0 0 50 50"
   xml:space="preserve"
   sodipodi:docname="mail.svg"
   width="50"
   height="50"
   inkscape:version="1.0.2 (e86c870879, 2021-01-15, custom)"><metadata
   id="metadata43"><rdf:RDF><cc:Work
       rdf:about=""><dc:format>image/svg+xml</dc:format><dc:type
         rdf:resource="http://purl.org/dc/dcmitype/StillImage" /><dc:title></dc:title></cc:Work></rdf:RDF></metadata><defs
   id="defs41" /><sodipodi:namedview
   pagecolor="#ffffff"
   bordercolor="#666666"
   borderopacity="1"
   objecttolerance="10"
   gridtolerance="10"
   guidetolerance="10"
   inkscape:pageopacity="0"
   inkscape:pageshadow="2"
   inkscape:window-width="1920"
   inkscape:window-height="992"
   id="namedview39"
   showgrid="false"
   inkscape:zoom="1.2519531"
   inkscape:cx="327.4362"
   inkscape:cy="168.43852"
   inkscape:window-x="0"
   inkscape:window-y="0"
   inkscape:window-maximized="1"
   inkscape:current-layer="Capa_1" />
<g
   id="g6"
   transform="matrix(0.09765625,0,0,0.09765625,1.5380859e-6,3.3886718e-7)"
   style="stroke-width:10.24;fill:#0055d4;fill-opacity:1">
	<g
   id="g4"
   style="stroke-width:10.24;fill:#0055d4;fill-opacity:1">
		<path
   d="M 467,76 H 45 C 20.137,76 0,96.262 0,121 v 270 c 0,24.885 20.285,45 45,45 h 422 c 24.655,0 45,-20.03 45,-45 V 121 C 512,96.306 491.943,76 467,76 Z m -6.302,30 c -9.194,9.145 -167.415,166.533 -172.878,171.967 -8.5,8.5 -19.8,13.18 -31.82,13.18 -12.02,0 -23.32,-4.681 -31.848,-13.208 C 220.478,274.284 64.003,118.634 51.302,106 Z M 30,384.894 V 127.125 L 159.638,256.08 Z M 51.321,406 180.908,277.237 202.967,299.18 c 14.166,14.166 33,21.967 53.033,21.967 20.033,0 38.867,-7.801 53.005,-21.939 L 331.092,277.237 460.679,406 Z M 482,384.894 352.362,256.08 482,127.125 Z"
   id="path2"
   style="stroke-width:10.24;fill:#0055d4;fill-opacity:1" />
	</g>
</g>
<g
   id="g8"
   transform="matrix(0.09765625,0,0,0.09765625,224.3972,-18.983353)"
   style="stroke-width:10.24">
</g>
<g
   id="g10"
   transform="matrix(0.09765625,0,0,0.09765625,224.3972,-18.983353)"
   style="stroke-width:10.24">
</g>
<g
   id="g12"
   transform="matrix(0.09765625,0,0,0.09765625,224.3972,-18.983353)"
   style="stroke-width:10.24">
</g>
<g
   id="g14"
   transform="matrix(0.09765625,0,0,0.09765625,224.3972,-18.983353)"
   style="stroke-width:10.24">
</g>
<g
   id="g16"
   transform="matrix(0.09765625,0,0,0.09765625,224.3972,-18.983353)"
   style="stroke-width:10.24">
</g>
<g
   id="g18"
   transform="matrix(0.09765625,0,0,0.09765625,224.3972,-18.983353)"
   style="stroke-width:10.24">
</g>
<g
   id="g20"
   transform="matrix(0.09765625,0,0,0.09765625,224.3972,-18.983353)"
   style="stroke-width:10.24">
</g>
<g
   id="g22"
   transform="matrix(0.09765625,0,0,0.09765625,224.3972,-18.983353)"
   style="stroke-width:10.24">
</g>
<g
   id="g24"
   transform="matrix(0.09765625,0,0,0.09765625,224.3972,-18.983353)"
   style="stroke-width:10.24">
</g>
<g
   id="g26"
   transform="matrix(0.09765625,0,0,0.09765625,224.3972,-18.983353)"
   style="stroke-width:10.24">
</g>
<g
   id="g28"
   transform="matrix(0.09765625,0,0,0.09765625,224.3972,-18.983353)"
   style="stroke-width:10.24">
</g>
<g
   id="g30"
   transform="matrix(0.09765625,0,0,0.09765625,224.3972,-18.983353)"
   style="stroke-width:10.24">
</g>
<g
   id="g32"
   transform="matrix(0.09765625,0,0,0.09765625,224.3972,-18.983353)"
   style="stroke-width:10.24">
</g>
<g
   id="g34"
   transform="matrix(0.09765625,0,0,0.09765625,224.3972,-18.983353)"
   style="stroke-width:10.24">
</g>
<g
   id="g36"
   transform="matrix(0.09765625,0,0,0.09765625,224.3972,-18.983353)"
   style="stroke-width:10.24">
</g>
</svg>
