<?xml version="1.0" encoding="UTF-8" standalone="no"?>
<svg
   xmlns:dc="http://purl.org/dc/elements/1.1/"
   xmlns:cc="http://creativecommons.org/ns#"
   xmlns:rdf="http://www.w3.org/1999/02/22-rdf-syntax-ns#"
   xmlns:svg="http://www.w3.org/2000/svg"
   xmlns="http://www.w3.org/2000/svg"
   xmlns:sodipodi="http://sodipodi.sourceforge.net/DTD/sodipodi-0.dtd"
   xmlns:inkscape="http://www.inkscape.org/namespaces/inkscape"
   id="Bold"
   enable-background="new 0 0 24 24"
   height="50.0009"
   viewBox="0 0 2.34375 2.3437922"
   width="50"
   version="1.1"
   sodipodi:docname="whatsapp.svg"
   inkscape:version="1.0.2 (e86c870879, 2021-01-15, custom)">
  <metadata
     id="metadata11">
    <rdf:RDF>
      <cc:Work
         rdf:about="">
        <dc:format>image/svg+xml</dc:format>
        <dc:type
           rdf:resource="http://purl.org/dc/dcmitype/StillImage" />
        <dc:title></dc:title>
      </cc:Work>
    </rdf:RDF>
  </metadata>
  <defs
     id="defs9" />
  <sodipodi:namedview
     pagecolor="#ffffff"
     bordercolor="#666666"
     borderopacity="1"
     objecttolerance="10"
     gridtolerance="10"
     guidetolerance="10"
     inkscape:pageopacity="0"
     inkscape:pageshadow="2"
     inkscape:window-width="1920"
     inkscape:window-height="992"
     id="namedview7"
     showgrid="false"
     inkscape:zoom="1.2519531"
     inkscape:cx="257.5975"
     inkscape:cy="256.00922"
     inkscape:window-x="0"
     inkscape:window-y="0"
     inkscape:window-maximized="1"
     inkscape:current-layer="Bold" />
  <path
     d="m 1.709668,1.3972101 -8.789e-4,0.00732 C 1.494043,1.2975031 1.471582,1.2832453 1.4438477,1.3248469 c -0.019238,0.028809 -0.075293,0.094141 -0.092188,0.1134765 -0.01709,0.019043 -0.034082,0.020508 -0.063086,0.00732 C 1.2592773,1.4309992 1.1652344,1.4002375 1.0539062,1.3006281 0.9671875,1.2229914 0.90898437,1.1277765 0.89179687,1.0984797 c -0.0286133,-0.049414 0.03125,-0.056445 0.0857422,-0.1595703 0.009766,-0.0205078 0.004785,-0.0366211 -0.002441,-0.0511719 C 0.96777344,0.87308909 0.90947266,0.7295344 0.88505859,0.67230784 0.86162109,0.61527659 0.8375,0.62250315 0.81943359,0.62250315 0.76318359,0.61762034 0.72207031,0.61840159 0.68583984,0.6560969 0.52822266,0.82933909 0.56796875,1.00805 0.70283203,1.198089 0.96787109,1.544964 1.109082,1.6088312 1.3672852,1.6975031 c 0.069727,0.022168 0.1333007,0.019043 0.1835937,0.011816 0.056055,-0.00889 0.1725586,-0.07041 0.196875,-0.1392578 0.024902,-0.068848 0.024902,-0.1259766 0.017578,-0.1391602 -0.00723,-0.013184 -0.026367,-0.020508 -0.055664,-0.033691 z"
     id="path2"
     style="stroke-width:1;fill:#ffffff" />
  <path
     d="M 2.0039063,0.33685862 C 1.2530273,-0.38902029 0.01035156,0.13744456 0.00986328,1.161468 c 0,0.2046875 0.05361328,0.4042968 0.15576172,0.5805664 L 0,2.3437922 0.61865234,2.182464 C 1.390625,2.5994562 2.3433594,2.0457453 2.34375,1.1620539 2.34375,0.85189768 2.2226563,0.56000315 2.0024414,0.34066721 Z M 2.1486328,1.1588312 C 2.1480469,1.9042414 1.3297852,2.3697687 0.68261719,1.9893 L 0.64746094,1.9684015 0.28125,2.0636164 0.37939453,1.7076594 0.35605469,1.6710383 C -0.04667969,1.029925 0.41601563,0.1920344 1.1789062,0.1920344 c 0.2591797,0 0.5024415,0.10107422 0.6856446,0.28417969 0.1831055,0.18154297 0.284082,0.42480469 0.284082,0.68261711 z"
     id="path4"
     style="stroke-width:1;fill:#ffffff" />
</svg>
