<?xml version="1.0" encoding="UTF-8" standalone="no"?>
<svg
   xmlns:dc="http://purl.org/dc/elements/1.1/"
   xmlns:cc="http://creativecommons.org/ns#"
   xmlns:rdf="http://www.w3.org/1999/02/22-rdf-syntax-ns#"
   xmlns:svg="http://www.w3.org/2000/svg"
   xmlns="http://www.w3.org/2000/svg"
   xmlns:xlink="http://www.w3.org/1999/xlink"
   xmlns:sodipodi="http://sodipodi.sourceforge.net/DTD/sodipodi-0.dtd"
   xmlns:inkscape="http://www.inkscape.org/namespaces/inkscape"
   width="105.91795mm"
   height="28.24478mm"
   viewBox="0 0 105.91795 28.24478"
   version="1.1"
   id="svg8"
   inkscape:version="1.0.2 (e86c870879, 2021-01-15, custom)"
   sodipodi:docname="zoho.svg"
   inkscape:export-filename="/run/media/gobadri/930.5 GB VO/Work/MedicAd/zoho.png"
   inkscape:export-xdpi="72"
   inkscape:export-ydpi="72">
  <defs
     id="defs2">
    <linearGradient
       inkscape:collect="always"
       id="linearGradient1160">
      <stop
         style="stop-color:#0055d4;stop-opacity:1;"
         offset="0"
         id="stop1156" />
      <stop
         style="stop-color:#206ee4;stop-opacity:1;"
         offset="0.61965764"
         id="stop1164" />
      <stop
         style="stop-color:#5599ff;stop-opacity:1"
         offset="1"
         id="stop1158" />
    </linearGradient>
    <linearGradient
       inkscape:collect="always"
       id="linearGradient857">
      <stop
         style="stop-color:#cccccc;stop-opacity:1"
         offset="0"
         id="stop853" />
      <stop
         style="stop-color:#ffffff;stop-opacity:1"
         offset="1"
         id="stop855" />
    </linearGradient>
    <radialGradient
       inkscape:collect="always"
       xlink:href="#linearGradient857"
       id="radialGradient859"
       cx="-543.39691"
       cy="199.22243"
       fx="-543.39691"
       fy="199.22243"
       r="29.786018"
       gradientUnits="userSpaceOnUse"
       gradientTransform="translate(0,-54.130832)" />
    <linearGradient
       inkscape:collect="always"
       xlink:href="#linearGradient857"
       id="linearGradient875"
       x1="-564.33374"
       y1="199.22243"
       x2="-522.46008"
       y2="199.22243"
       gradientUnits="userSpaceOnUse"
       gradientTransform="translate(0,-54.130832)" />
    <linearGradient
       inkscape:collect="always"
       xlink:href="#linearGradient857"
       id="linearGradient879"
       gradientUnits="userSpaceOnUse"
       x1="-564.33374"
       y1="199.22243"
       x2="-522.46008"
       y2="199.22243"
       gradientTransform="matrix(0.96394239,0,0,0.96394239,1067.2002,-46.947348)" />
    <linearGradient
       inkscape:collect="always"
       xlink:href="#linearGradient1160"
       id="linearGradient1162"
       x1="-650.46484"
       y1="941.20508"
       x2="-586.27484"
       y2="887.77679"
       gradientUnits="userSpaceOnUse" />
    <linearGradient
       inkscape:collect="always"
       xlink:href="#linearGradient1160"
       id="linearGradient1239"
       gradientUnits="userSpaceOnUse"
       x1="-650.46484"
       y1="941.20508"
       x2="-586.27484"
       y2="887.77679" />
    <linearGradient
       inkscape:collect="always"
       xlink:href="#linearGradient1160"
       id="linearGradient1269"
       x1="-212.91341"
       y1="1154.9136"
       x2="-150.78596"
       y2="1092.7861"
       gradientUnits="userSpaceOnUse"
       gradientTransform="translate(0,8.5151053)" />
    <linearGradient
       inkscape:collect="always"
       xlink:href="#linearGradient1160"
       id="linearGradient1302"
       gradientUnits="userSpaceOnUse"
       gradientTransform="translate(0,8.5151053)"
       x1="-212.91341"
       y1="1154.9136"
       x2="-150.78596"
       y2="1092.7861" />
    <linearGradient
       inkscape:collect="always"
       xlink:href="#linearGradient1160"
       id="linearGradient1468"
       x1="1330.9343"
       y1="526.95642"
       x2="1614.1062"
       y2="318.55594"
       gradientUnits="userSpaceOnUse"
       gradientTransform="matrix(0.22947658,0,0,0.22947658,-250.84942,912.39962)" />
    <linearGradient
       inkscape:collect="always"
       xlink:href="#linearGradient1160"
       id="linearGradient1510"
       gradientUnits="userSpaceOnUse"
       gradientTransform="translate(391.78718,8.5151053)"
       x1="-212.91341"
       y1="1154.9136"
       x2="-150.78596"
       y2="1092.7861" />
    <linearGradient
       inkscape:collect="always"
       xlink:href="#linearGradient1160"
       id="linearGradient1535"
       gradientUnits="userSpaceOnUse"
       x1="1330.9343"
       y1="526.95642"
       x2="1614.1062"
       y2="318.55594" />
    <linearGradient
       inkscape:collect="always"
       xlink:href="#linearGradient1160"
       id="linearGradient957"
       gradientUnits="userSpaceOnUse"
       x1="-650.46484"
       y1="941.20508"
       x2="-586.27484"
       y2="887.77679" />
  </defs>
  <sodipodi:namedview
     id="base"
     pagecolor="#ffffff"
     bordercolor="#666666"
     borderopacity="1.0"
     inkscape:pageopacity="0.0"
     inkscape:pageshadow="2"
     inkscape:zoom="1.4"
     inkscape:cx="244.9976"
     inkscape:cy="220.12597"
     inkscape:document-units="mm"
     inkscape:current-layer="layer1"
     inkscape:document-rotation="0"
     showgrid="false"
     inkscape:snap-object-midpoints="true"
     showguides="true"
     inkscape:guide-bbox="true"
     inkscape:snap-smooth-nodes="false"
     inkscape:object-paths="false"
     inkscape:snap-intersection-paths="false"
     inkscape:window-width="1920"
     inkscape:window-height="992"
     inkscape:window-x="0"
     inkscape:window-y="0"
     inkscape:window-maximized="1">
    <sodipodi:guide
       position="-202.4552,1190.6238"
       orientation="0,-1"
       id="guide1092" />
    <sodipodi:guide
       position="-345.59604,1080.577"
       orientation="1,0"
       id="guide1346" />
    <sodipodi:guide
       position="-437.52355,1080.577"
       orientation="0,-1"
       id="guide1368" />
  </sodipodi:namedview>
  <metadata
     id="metadata5">
    <rdf:RDF>
      <cc:Work
         rdf:about="">
        <dc:format>image/svg+xml</dc:format>
        <dc:type
           rdf:resource="http://purl.org/dc/dcmitype/StillImage" />
        <dc:title />
      </cc:Work>
    </rdf:RDF>
  </metadata>
  <g
     inkscape:label="Layer 1"
     inkscape:groupmode="layer"
     id="layer1"
     transform="translate(197.43933,-1530.2091)">
    <path
       style="color:#000000;font-style:normal;font-variant:normal;font-weight:normal;font-stretch:normal;font-size:medium;line-height:normal;font-family:sans-serif;font-variant-ligatures:normal;font-variant-position:normal;font-variant-caps:normal;font-variant-numeric:normal;font-variant-alternates:normal;font-variant-east-asian:normal;font-feature-settings:normal;font-variation-settings:normal;text-indent:0;text-align:start;text-decoration:none;text-decoration-line:none;text-decoration-style:solid;text-decoration-color:#000000;letter-spacing:normal;word-spacing:normal;text-transform:none;writing-mode:lr-tb;direction:ltr;text-orientation:mixed;dominant-baseline:auto;baseline-shift:baseline;text-anchor:start;white-space:normal;shape-padding:0;shape-margin:0;inline-size:0;clip-rule:nonzero;display:inline;overflow:visible;visibility:visible;opacity:1;isolation:auto;mix-blend-mode:normal;color-interpolation:sRGB;color-interpolation-filters:linearRGB;solid-color:#000000;solid-opacity:1;vector-effect:none;fill:#ff8f45;fill-opacity:1;fill-rule:nonzero;stroke:none;stroke-width:3.77953;stroke-linecap:butt;stroke-linejoin:round;stroke-miterlimit:4;stroke-dasharray:none;stroke-dashoffset:0;stroke-opacity:1;color-rendering:auto;image-rendering:auto;shape-rendering:auto;text-rendering:auto;enable-background:accumulate;stop-color:#000000;stop-opacity:1"
       d="m -1238.5547,-1806.8281 c 22.4917,7.4166 40.7314,24.58 49.6231,46.3867 v -46.3867 z"
       transform="matrix(0.26458333,0,0,0.26458333,-303.26854,896.66794)"
       id="path1388" />
    <circle
       style="opacity:0.996;fill:none;stroke:#0044aa;stroke-width:7;stroke-linecap:butt;stroke-linejoin:round;stroke-miterlimit:4;stroke-dasharray:none"
       id="path974"
       cx="-820.59808"
       cy="275.54834"
       r="28.321724" />
    <circle
       style="opacity:0.996;fill:#ffffff;stroke:none;stroke-width:7;stroke-linecap:butt;stroke-linejoin:round;stroke-miterlimit:4;stroke-dasharray:none"
       id="path1004"
       cx="-792.8219"
       cy="273.38312"
       r="10.714108" />
    <text
       xml:space="preserve"
       style="font-style:normal;font-weight:normal;font-size:47.3995px;line-height:1.25;font-family:sans-serif;fill:#000000;fill-opacity:1;stroke:none;stroke-width:1.18499"
       x="-386.85916"
       y="128.44344"
       id="text835"><tspan
         sodipodi:role="line"
         id="tspan833"
         x="-386.85916"
         y="128.44344"
         style="font-style:normal;font-variant:normal;font-weight:900;font-stretch:normal;font-family:Roboto;-inkscape-font-specification:'Roboto Heavy';stroke-width:1.18499">Medic<tspan
   style="font-style:normal;font-variant:normal;font-weight:500;font-stretch:normal;font-family:Roboto;-inkscape-font-specification:'Roboto Medium'"
   id="tspan837">Ad</tspan>.</tspan></text>
    <text
       xml:space="preserve"
       style="font-style:normal;font-weight:normal;font-size:47.3995px;line-height:1.25;font-family:sans-serif;fill:#000000;fill-opacity:1;stroke:none;stroke-width:1.18499"
       x="-386.85916"
       y="279.70312"
       id="text845"><tspan
         sodipodi:role="line"
         id="tspan843"
         x="-386.85916"
         y="279.70312"
         style="font-style:normal;font-variant:normal;font-weight:900;font-stretch:normal;font-family:Roboto;-inkscape-font-specification:'Roboto Heavy';stroke-width:1.18499">Medic<tspan
   style="font-style:normal;font-variant:normal;font-weight:500;font-stretch:normal;font-family:Roboto;-inkscape-font-specification:'Roboto Medium'"
   id="tspan841">Ad</tspan>.</tspan></text>
    <circle
       style="opacity:0.996;fill:#000000;stroke:none;stroke-width:1.32292;stroke-linecap:round;stroke-linejoin:round"
       id="path849"
       cx="-543.39691"
       cy="145.0916"
       r="31.381666" />
    <circle
       style="opacity:0.996;fill:url(#radialGradient859);fill-opacity:1;stroke:none;stroke-width:1.25565;stroke-linecap:round;stroke-linejoin:round"
       id="circle851"
       cx="-543.39691"
       cy="145.0916"
       r="29.786018" />
    <circle
       style="opacity:0.996;fill:#000000;fill-opacity:1;stroke:none;stroke-width:0.944549;stroke-linecap:round;stroke-linejoin:round"
       id="circle861"
       cx="-543.39691"
       cy="145.0916"
       r="22.406204" />
    <circle
       style="opacity:0.996;fill:url(#linearGradient875);fill-opacity:1;stroke:none;stroke-width:0.882606;stroke-linecap:round;stroke-linejoin:round"
       id="circle867"
       cx="-543.39691"
       cy="145.0916"
       r="20.936817" />
    <circle
       style="opacity:0.996;fill:url(#linearGradient879);fill-opacity:1;stroke:none;stroke-width:0.850781;stroke-linecap:round;stroke-linejoin:round"
       id="circle877"
       cx="543.39691"
       cy="145.0916"
       r="20.181885"
       transform="scale(-1,1)" />
    <circle
       style="opacity:0.996;fill:#000000;fill-opacity:1;stroke:none;stroke-width:0.0731156;stroke-linecap:round;stroke-linejoin:round"
       id="circle881"
       cx="543.39691"
       cy="145.0916"
       r="1.7344192"
       transform="scale(-1,1)" />
    <path
       id="circle909"
       style="opacity:0.996;fill:none;stroke:#0066ff;stroke-width:7;stroke-linecap:butt;stroke-linejoin:round;stroke-miterlimit:4;stroke-dasharray:none"
       d="m -806.57828,272.94445 a 13.756404,13.756404 0 0 1 13.75641,-13.75641 13.756404,13.756404 0 0 1 13.7564,13.75641 v 0 18.13376" />
    <path
       id="path913"
       style="opacity:0.996;fill:none;stroke:#0066ff;stroke-width:7;stroke-linecap:butt;stroke-linejoin:round;stroke-miterlimit:4;stroke-dasharray:none"
       d="m -806.57828,272.94445 a 13.756404,13.756404 0 0 0 -13.7564,-13.7564 13.756404,13.756404 0 0 0 -13.75641,13.7564 v 18.13375" />
    <path
       id="path970"
       style="opacity:0.996;fill:none;stroke:#0066ff;stroke-width:7;stroke-linecap:butt;stroke-linejoin:round;stroke-miterlimit:4;stroke-dasharray:none"
       d="m -792.82187,287.57821 c -7.59746,0 -13.75641,-6.15895 -13.75641,-13.75641 v -0.87735"
       sodipodi:nodetypes="cc" />
    <path
       id="circle1006"
       style="color:#000000;font-style:normal;font-variant:normal;font-weight:normal;font-stretch:normal;font-size:medium;line-height:normal;font-family:sans-serif;font-variant-ligatures:normal;font-variant-position:normal;font-variant-caps:normal;font-variant-numeric:normal;font-variant-alternates:normal;font-variant-east-asian:normal;font-feature-settings:normal;font-variation-settings:normal;text-indent:0;text-align:start;text-decoration:none;text-decoration-line:none;text-decoration-style:solid;text-decoration-color:#000000;letter-spacing:normal;word-spacing:normal;text-transform:none;writing-mode:lr-tb;direction:ltr;text-orientation:mixed;dominant-baseline:auto;baseline-shift:baseline;text-anchor:start;white-space:normal;shape-padding:0;shape-margin:0;inline-size:0;clip-rule:nonzero;display:inline;overflow:visible;visibility:visible;opacity:0.996;isolation:auto;mix-blend-mode:normal;color-interpolation:sRGB;color-interpolation-filters:linearRGB;solid-color:#000000;solid-opacity:1;vector-effect:none;fill:#0044aa;fill-opacity:1;fill-rule:nonzero;stroke:none;stroke-width:1;stroke-linecap:butt;stroke-linejoin:round;stroke-miterlimit:4;stroke-dasharray:none;stroke-dashoffset:0;stroke-opacity:1;color-rendering:auto;image-rendering:auto;shape-rendering:auto;text-rendering:auto;enable-background:accumulate;stop-color:#000000;stop-opacity:1"
       d="m -985.95083,243.72672 c -17.53317,0 -31.82187,14.28915 -31.82187,31.82235 0,17.53319 14.2887,31.82027 31.82187,31.82027 11.8986,0 22.29977,-6.58236 27.75799,-16.29151 h -0.006 c -0.26024,-3.4e-4 -0.51869,-0.008 -0.77618,-0.0202 -0.0418,-0.002 -0.0838,-0.003 -0.12557,-0.005 -0.0828,-0.004 -0.16449,-0.0135 -0.24702,-0.0191 -0.23182,-0.0158 -0.46315,-0.0335 -0.69246,-0.0584 -0.0795,-0.009 -0.15799,-0.0207 -0.23718,-0.0305 -0.22524,-0.0277 -0.44979,-0.0576 -0.67233,-0.0941 -0.077,-0.0127 -0.15325,-0.0277 -0.22995,-0.0413 -0.22865,-0.0406 -0.45609,-0.0847 -0.68162,-0.13435 -0.0604,-0.0133 -0.1202,-0.0279 -0.18034,-0.0419 -0.24381,-0.0564 -0.48572,-0.11727 -0.72554,-0.18397 -0.0428,-0.012 -0.0854,-0.0244 -0.12816,-0.0367 -0.25382,-0.0728 -0.50496,-0.15113 -0.75396,-0.23514 -0.0319,-0.0108 -0.0638,-0.0216 -0.0956,-0.0325 -0.26689,-0.0918 -0.53081,-0.18966 -0.79169,-0.29406 -0.01,-0.004 -0.02,-0.008 -0.03,-0.0119 -0.27744,-0.11163 -0.55144,-0.23008 -0.82166,-0.35552 -4.45534,6.57746 -11.98644,10.88615 -20.56254,10.88615 -13.75013,0 -24.82226,-11.07009 -24.82226,-24.82019 0,-13.75012 11.07213,-24.82226 24.82226,-24.82226 7.19653,0 13.6575,3.03471 18.18338,7.89719 2.01877,-1.36042 4.33647,-2.30592 6.82956,-2.71198 -5.83343,-7.41251 -14.88075,-12.1853 -25.01294,-12.1853 z m 30.76866,39.94381 c -0.0777,0.29353 -0.16061,0.58476 -0.24652,0.8749 0.0858,-0.29017 0.16884,-0.58137 0.24652,-0.8749 z m -0.29972,1.05264 c -0.0887,0.29316 -0.18058,0.58537 -0.27752,0.8749 0.0968,-0.28972 0.18888,-0.58158 0.27752,-0.8749 z m -0.27752,0.8749 c -0.10459,0.3124 -0.21416,0.62217 -0.32814,0.93017 0.11374,-0.30795 0.22376,-0.61788 0.32814,-0.93017 z m -0.33642,0.9529 c -0.44953,1.21179 -0.97235,2.3885 -1.56009,3.52642 0.5874,-1.13824 1.11128,-2.31407 1.56009,-3.52642 z m -1.72083,3.8308 c -0.11781,0.22225 -0.23577,0.44436 -0.35861,0.66352 v 0.002 c 0.12319,-0.21971 0.24053,-0.44273 0.35861,-0.66558 z" />
    <path
       id="path1010"
       style="color:#000000;font-style:normal;font-variant:normal;font-weight:normal;font-stretch:normal;font-size:medium;line-height:normal;font-family:sans-serif;font-variant-ligatures:normal;font-variant-position:normal;font-variant-caps:normal;font-variant-numeric:normal;font-variant-alternates:normal;font-variant-east-asian:normal;font-feature-settings:normal;font-variation-settings:normal;text-indent:0;text-align:start;text-decoration:none;text-decoration-line:none;text-decoration-style:solid;text-decoration-color:#000000;letter-spacing:normal;word-spacing:normal;text-transform:none;writing-mode:lr-tb;direction:ltr;text-orientation:mixed;dominant-baseline:auto;baseline-shift:baseline;text-anchor:start;white-space:normal;shape-padding:0;shape-margin:0;inline-size:0;clip-rule:nonzero;display:inline;overflow:visible;visibility:visible;opacity:0.996;isolation:auto;mix-blend-mode:normal;color-interpolation:sRGB;color-interpolation-filters:linearRGB;solid-color:#000000;solid-opacity:1;vector-effect:none;fill:#0066ff;fill-opacity:1;fill-rule:nonzero;stroke:none;stroke-width:1;stroke-linecap:butt;stroke-linejoin:round;stroke-miterlimit:4;stroke-dasharray:none;stroke-dashoffset:0;stroke-opacity:1;color-rendering:auto;image-rendering:auto;shape-rendering:auto;text-rendering:auto;enable-background:accumulate;stop-color:#000000;stop-opacity:1"
       d="m -985.68678,255.68775 c -9.48899,0 -17.25782,7.76836 -17.25782,17.25734 v 18.13327 h 7.00006 v -18.13327 c 0,-5.7059 4.55186,-10.25777 10.25776,-10.25777 5.7059,0 10.2557,4.55187 10.2557,10.25777 v 0.87696 c 0,6.91729 4.12964,12.91564 10.04279,15.66106 0.27022,0.12544 0.54422,0.24389 0.82166,0.35552 0.01,0.004 0.02,0.008 0.03,0.0119 0.26088,0.1044 0.5248,0.20225 0.79169,0.29406 0.0318,0.011 0.0637,0.0218 0.0956,0.0325 0.249,0.084 0.50014,0.16238 0.75396,0.23514 0.0427,0.0123 0.0853,0.0247 0.12816,0.0367 0.23982,0.0667 0.48173,0.12753 0.72554,0.18397 0.0601,0.014 0.11999,0.0285 0.18034,0.0419 0.22553,0.0496 0.45297,0.0937 0.68162,0.13435 0.0767,0.0137 0.15293,0.0287 0.22995,0.0413 0.22254,0.0364 0.44709,0.0664 0.67233,0.0941 0.0792,0.01 0.15767,0.0218 0.23718,0.0305 0.22931,0.025 0.46064,0.0426 0.69246,0.0584 0.0825,0.006 0.1642,0.0146 0.24702,0.0191 0.0417,0.002 0.0837,0.003 0.12557,0.005 0.25749,0.012 0.51594,0.0198 0.77618,0.0202 0.002,0 0.004,0 0.006,0 0.006,0 0.0117,5.3e-4 0.0176,5.3e-4 v -0.0331 c 1.28905,-2.29926 2.30407,-4.77126 2.9931,-7.37476 a 10.714108,10.714108 0 0 1 -2.9926,0.42685 10.714108,10.714108 0 0 1 -5e-4,0 v -0.0191 c -5.70593,0 -10.25573,-4.55027 -10.25573,-10.2562 v -0.87696 c 0,-5.7059 4.5498,-10.25777 10.25573,-10.25777 5.7059,0 10.2557,4.55187 10.2557,10.25777 v 18.13327 h 7.00008 v -18.13327 c 3e-5,-9.48898 -7.76679,-17.25734 -17.25578,-17.25734 -5.59956,0 -10.59775,2.7063 -13.75577,6.874 -3.15799,-4.16783 -8.1561,-6.874 -13.75574,-6.874 z" />
    <path
       id="path1052"
       style="opacity:0.996;fill:none;stroke:#0066ff;stroke-width:7;stroke-linecap:butt;stroke-linejoin:round;stroke-miterlimit:4;stroke-dasharray:none"
       d="m -636.48601,274.01086 c -7.59746,0 -13.75641,-6.15895 -13.75641,-13.75641 v -0.87735 m 0,0 a 13.756404,13.756404 0 0 0 -13.7564,-13.7564 13.756404,13.756404 0 0 0 -13.75641,13.7564 v 18.13375 m 27.51281,-18.13375 a 13.756404,13.756404 0 0 1 13.75641,-13.75641 13.756404,13.756404 0 0 1 13.7564,13.75641 v 0 18.13376" />
    <rect
       style="opacity:0.996;fill:#0055d4;fill-opacity:1;stroke:none;stroke-width:7;stroke-linecap:butt;stroke-linejoin:round;stroke-miterlimit:4;stroke-dasharray:none"
       id="rect1057"
       width="52.83532"
       height="52.83532"
       x="-907.12299"
       y="315.57703"
       rx="13.138535"
       ry="13.138535" />
    <path
       id="path1059"
       style="color:#000000;font-style:normal;font-variant:normal;font-weight:normal;font-stretch:normal;font-size:medium;line-height:normal;font-family:sans-serif;font-variant-ligatures:normal;font-variant-position:normal;font-variant-caps:normal;font-variant-numeric:normal;font-variant-alternates:normal;font-variant-east-asian:normal;font-feature-settings:normal;font-variation-settings:normal;text-indent:0;text-align:start;text-decoration:none;text-decoration-line:none;text-decoration-style:solid;text-decoration-color:#000000;letter-spacing:normal;word-spacing:normal;text-transform:none;writing-mode:lr-tb;direction:ltr;text-orientation:mixed;dominant-baseline:auto;baseline-shift:baseline;text-anchor:start;white-space:normal;shape-padding:0;shape-margin:0;inline-size:0;clip-rule:nonzero;display:inline;overflow:visible;visibility:visible;opacity:0.996;isolation:auto;mix-blend-mode:normal;color-interpolation:sRGB;color-interpolation-filters:linearRGB;solid-color:#000000;solid-opacity:1;vector-effect:none;fill:#ffffff;fill-opacity:1;fill-rule:nonzero;stroke:none;stroke-width:0.999998;stroke-linecap:butt;stroke-linejoin:round;stroke-miterlimit:4;stroke-dasharray:none;stroke-dashoffset:0;stroke-opacity:1;color-rendering:auto;image-rendering:auto;shape-rendering:auto;text-rendering:auto;enable-background:accumulate;stop-color:#000000;stop-opacity:1"
       d="m -885.7473,343.54222 c -6.66819,0 -12.12744,5.4582 -12.12744,12.12639 v 12.16205 c 1.22843,0.37779 2.53468,0.58189 3.89022,0.58189 h 1.02886 v -12.74394 c 0,-4.00971 3.19865,-7.20731 7.20836,-7.20731 4.00971,0 7.2073,3.1976 7.2073,7.20731 v 0.61753 c 0,6.50055 5.18756,11.84857 11.62616,12.11348 0.16757,-0.006 0.33388,-0.0169 0.49972,-0.0295 v -4.8767 c -4.00973,0 -7.2068,-3.19762 -7.2068,-7.20733 v -0.61753 c 0,-4.00971 3.1971,-7.20731 7.2068,-7.20731 4.00971,0 7.20731,3.1976 7.20731,7.20731 v 9.8666 c 2.95304,-2.36516 4.85335,-5.98157 4.91392,-10.06142 -0.10547,-6.57899 -5.51836,-11.93157 -12.12123,-11.93157 -3.95359,0 -7.4491,1.9463 -9.6666,4.89842 -2.21747,-2.95238 -5.71278,-4.89842 -9.66658,-4.89842 z" />
    <path
       id="path1076"
       style="opacity:0.996;fill:none;stroke:#0055d4;stroke-width:7;stroke-linecap:butt;stroke-linejoin:round;stroke-miterlimit:4;stroke-dasharray:none;stroke-opacity:1"
       d="m -581.05201,309.27083 c -7.59746,0 -13.75641,-6.15895 -13.75641,-13.75641 v -0.87735 m 0,0 a 13.756404,13.756404 0 0 0 -13.7564,-13.7564 13.756404,13.756404 0 0 0 -13.75641,13.7564 v 18.13375 m 27.51281,-18.13375 a 13.756404,13.756404 0 0 1 13.75641,-13.75641 13.756404,13.756404 0 0 1 13.7564,13.75641 v 0 18.13376" />
    <path
       id="path1086"
       style="opacity:0.996;fill:none;stroke:#0055d4;stroke-width:15;stroke-linecap:square;stroke-linejoin:round;stroke-miterlimit:4;stroke-dasharray:none;stroke-opacity:1"
       d="m -648.72005,333.82223 c 0,-7.59746 6.15895,-13.75641 13.75641,-13.75641 7.59745,0 13.7564,6.15896 13.7564,13.75641 v 0 30.50878"
       sodipodi:nodetypes="csscc" />
    <path
       id="path1088"
       style="opacity:0.996;fill:none;stroke:#0055d4;stroke-width:15;stroke-linecap:square;stroke-linejoin:round;stroke-miterlimit:4;stroke-dasharray:none;stroke-opacity:1"
       d="m -648.72005,333.82223 c 0,-7.59745 -6.15895,-13.7564 -13.7564,-13.7564 -7.59745,0 -13.75641,6.15895 -13.75641,13.7564 V 364.331"
       sodipodi:nodetypes="cssc" />
    <path
       id="path1090"
       style="opacity:0.996;fill:none;stroke:#0055d4;stroke-width:15;stroke-linecap:butt;stroke-linejoin:round;stroke-miterlimit:4;stroke-dasharray:none;stroke-opacity:1"
       d="m -634.96364,364.331 c -7.59746,0 -13.75641,-6.15895 -13.75641,-13.75641 v -0.87735 -15.87501"
       sodipodi:nodetypes="cc" />
    <path
       id="path1105"
       style="opacity:0.996;fill:none;stroke:#0055d4;stroke-width:15;stroke-linecap:butt;stroke-linejoin:round;stroke-miterlimit:4;stroke-dasharray:none;stroke-opacity:1"
       d="m -792.75521,934.05866 c -7.59746,0 -13.75641,-6.15895 -13.75641,-13.75641 v -16.75236 m 0,0 c 0,-7.59745 -6.15895,-13.7564 -13.7564,-13.7564 -7.59745,0 -13.75641,6.15895 -13.75641,13.7564 v 38.00876 m 27.51281,-38.00876 c 0,-7.59746 6.15895,-13.75641 13.75641,-13.75641 7.59745,0 13.7564,6.15896 13.7564,13.75641 v 38.00877"
       sodipodi:nodetypes="ccccssccscc" />
    <path
       style="opacity:0.996;fill:#d40000;fill-opacity:1;stroke:none;stroke-width:56.6929;stroke-linecap:square;stroke-linejoin:round;stroke-miterlimit:4;stroke-dasharray:none;stroke-opacity:1"
       d="m -2960.0176,3333.3164 c 19.9086,8.2041 35.9145,24.2111 44.1172,44.1211 v -44.1211 z"
       transform="scale(0.26458333)"
       id="rect1128" />
    <g
       id="g1223">
      <g
         id="g1146"
         transform="matrix(0.67427159,0,0,0.67427159,135.32142,302.00122)"
         style="stroke-width:1.48308">
        <path
           style="color:#000000;font-style:normal;font-variant:normal;font-weight:normal;font-stretch:normal;font-size:medium;line-height:normal;font-family:sans-serif;font-variant-ligatures:normal;font-variant-position:normal;font-variant-caps:normal;font-variant-numeric:normal;font-variant-alternates:normal;font-variant-east-asian:normal;font-feature-settings:normal;font-variation-settings:normal;text-indent:0;text-align:start;text-decoration:none;text-decoration-line:none;text-decoration-style:solid;text-decoration-color:#000000;letter-spacing:normal;word-spacing:normal;text-transform:none;writing-mode:lr-tb;direction:ltr;text-orientation:mixed;dominant-baseline:auto;baseline-shift:baseline;text-anchor:start;white-space:normal;shape-padding:0;shape-margin:0;inline-size:0;clip-rule:nonzero;display:inline;overflow:visible;visibility:visible;opacity:0.996;isolation:auto;mix-blend-mode:normal;color-interpolation:sRGB;color-interpolation-filters:linearRGB;solid-color:#000000;solid-opacity:1;vector-effect:none;fill:url(#linearGradient1162);fill-opacity:1;fill-rule:nonzero;stroke:none;stroke-width:1.48308;stroke-linecap:butt;stroke-linejoin:round;stroke-miterlimit:4;stroke-dasharray:none;stroke-dashoffset:0;stroke-opacity:1;color-rendering:auto;image-rendering:auto;shape-rendering:auto;text-rendering:auto;enable-background:accumulate;stop-color:#000000;stop-opacity:1"
           d="m -629.20703,881.93945 c -11.65075,0 -21.25781,9.60706 -21.25781,21.25782 v 38.00781 h 15 v -38.00781 c 0,-3.54415 2.71366,-6.25782 6.25781,-6.25782 3.54415,0 6.25586,2.71367 6.25586,6.25782 v 16.75195 c 0,11.65075 9.6051,21.25586 21.25586,21.25586 v -15 c -3.54417,0 -6.25586,-2.7117 -6.25586,-6.25586 v -16.75195 c 0,-3.54417 2.71169,-6.25782 6.25586,-6.25782 3.54414,0 6.25586,2.71367 6.25586,6.25782 v 38.00781 h 15 v -38.00781 c 0,-11.65076 -9.60511,-21.25782 -21.25586,-21.25782 -5.25212,0 -10.02756,2.02292 -13.75586,5.23438 -3.7283,-3.21146 -8.50374,-5.23438 -13.75586,-5.23438 z"
           id="path1136" />
        <path
           style="opacity:0.996;fill:#ff8f45;fill-opacity:1;stroke:none;stroke-width:22.2463;stroke-linecap:square;stroke-linejoin:round;stroke-miterlimit:4;stroke-dasharray:none;stroke-opacity:1"
           d="m -592.11119,881.93995 c 5.26749,2.17067 9.50238,6.40586 11.67268,11.67371 v -11.67371 z"
           id="path1138" />
      </g>
      <path
         id="path1190"
         style="font-style:normal;font-variant:normal;font-weight:900;font-stretch:normal;font-size:50.3438px;line-height:1.25;font-family:Roboto;-inkscape-font-specification:'Roboto Heavy';fill:#1c1f24;fill-opacity:1;stroke:none;stroke-width:0.264583"
         d="m -166.78003,903.28192 v 11.74436 c -1.41445,-1.62876 -3.1576,-2.44321 -5.22927,-2.44321 -2.8432,0 -5.05758,1.05762 -6.64348,3.17218 -1.58591,2.11453 -2.37879,5.00755 -2.37879,8.6794 0,3.90047 0.80711,6.90818 2.42159,9.02271 1.61448,2.11455 3.80041,3.17171 6.55788,3.17171 2.28598,0 4.17183,-0.97181 5.65773,-2.91491 l 0.36447,2.48603 h 6.49391 v -32.91827 z m 14.84038,0.23609 c -1.18585,0 -2.14989,0.32854 -2.89284,0.98575 -0.74294,0.65722 -1.1146,1.50011 -1.1146,2.52881 0,1.0287 0.37166,1.87159 1.1146,2.52881 0.74295,0.65723 1.70699,0.98575 2.89284,0.98575 1.18586,0 2.15035,-0.32852 2.89329,-0.98575 0.74295,-0.65722 1.11461,-1.50011 1.11461,-2.52881 0,-1.0287 -0.37166,-1.87159 -1.11461,-2.52881 -0.74294,-0.65721 -1.70743,-0.98575 -2.89329,-0.98575 z m -90.67499,1.47862 v 31.20356 h 7.52246 v -7.28639 l -0.7285,-14.93769 7.56481,22.22408 h 4.97202 l 7.54408,-22.20246 -0.72895,14.91607 v 7.28639 h 7.54408 v -31.20356 h -9.90124 l -6.94398,21.70959 -6.96471,-21.70959 z m 48.58445,7.58644 c -2.31456,0 -4.31466,0.50014 -6.00058,1.50026 -1.68592,0.98584 -2.97205,2.38621 -3.85787,4.20071 -0.87153,1.81452 -1.30698,3.9073 -1.30698,6.27902 v 0.60009 c 0,3.4004 1.09985,6.1654 3.30012,8.29421 2.20026,2.11455 5.0795,3.17171 8.63706,3.17171 1.90023,0 3.67183,-0.36432 5.31488,-1.09296 1.65734,-0.74296 2.93568,-1.73588 3.83579,-2.9789 l -3.30012,-3.90067 c -1.28586,1.6002 -3.07168,2.40042 -5.35767,2.40042 -1.38588,0 -2.51463,-0.37166 -3.38617,-1.1146 -0.87153,-0.74296 -1.43591,-1.76435 -1.69308,-3.0645 h 14.35877 v -2.80769 c 0,-3.61472 -0.94293,-6.42926 -2.82887,-8.44378 -1.88594,-2.02883 -4.45775,-3.04332 -7.71528,-3.04332 z m 60.57569,0 c -2.22883,0 -4.15781,0.48591 -5.78658,1.45747 -1.62876,0.95726 -2.87865,2.33606 -3.75019,4.13628 -0.85725,1.78592 -1.2858,3.85028 -1.2858,6.1934 v 0.30006 c 0,3.74329 0.97137,6.67255 2.91446,8.78708 1.94309,2.11455 4.60071,3.17171 7.97254,3.17171 2.87177,0 5.21463,-0.81442 7.02913,-2.44321 1.82879,-1.62876 2.74326,-3.71466 2.74326,-6.25783 h -6.77233 c 0.0143,0.98584 -0.25689,1.75716 -0.8141,2.31436 -0.55721,0.54293 -1.34321,0.81457 -2.35761,0.81457 -1.21443,0 -2.1,-0.45013 -2.65722,-1.35023 -0.5572,-0.90012 -0.83618,-2.51476 -0.83618,-4.84363 0,-1.32873 0.05,-2.37168 0.15003,-3.12891 0.31432,-2.386 1.40729,-3.57898 3.27894,-3.57898 0.98583,0 1.77183,0.32165 2.35761,0.96457 0.58579,0.64292 0.87853,1.56429 0.87853,2.76444 h 6.77233 c 0,-2.85749 -0.88557,-5.12189 -2.65721,-6.79351 -1.77164,-1.67162 -4.16496,-2.50764 -7.17961,-2.50764 z m -22.06414,0.42891 v 23.18821 h 7.24404 v -23.18821 z m -38.55435,5.14323 c 1.14299,0 2.02167,0.32165 2.63603,0.96457 0.61438,0.62864 0.90713,1.52157 0.87854,2.67884 v 0.5573 h -7.28639 c 0.40005,-2.80034 1.65728,-4.20071 3.77182,-4.20071 z m 23.9068,0 c 1.60019,0 2.72894,0.68597 3.38616,2.05755 v 8.82943 c -0.68579,1.34303 -1.82877,2.01477 -3.42896,2.01477 -2.40029,0 -3.60017,-2.05746 -3.60017,-6.17223 l 0.0212,-1.32861 c 0.18573,-3.60042 1.39295,-5.40091 3.62179,-5.40091 z" />
      <path
         id="path1200"
         style="font-style:normal;font-variant:normal;font-weight:500;font-stretch:normal;font-size:50.3438px;line-height:1.25;font-family:Roboto;-inkscape-font-specification:'Roboto Medium';fill:#1c1f24;fill-opacity:1;stroke:none;stroke-width:0.264583"
         d="m -76.576286,903.28192 v 11.87322 c -1.514465,-1.71448 -3.500341,-2.57207 -5.957776,-2.57207 -2.786046,0 -5.007766,1.08607 -6.665106,3.25776 -1.657339,2.15741 -2.486013,5.02196 -2.486013,8.59382 0,3.75759 0.835559,6.72952 2.507187,8.91549 1.685915,2.18597 3.886522,3.27893 6.601131,3.27893 2.60031,0 4.678877,-0.94291 6.236205,-2.82884 l 0.25725,2.39996 h 4.714773 v -32.91827 z m -32.916904,1.71471 -11.78715,31.20356 h 5.6361 l 2.52881,-7.26477 h 12.08721 l 2.550436,7.26477 h 5.657725 l -11.808331,-31.20356 z m 2.42159,6.62231 4.52195,12.94412 h -9.0439 z m 25.866143,5.22927 c 2.128825,0 3.671916,0.9287 4.629171,2.78608 v 9.90078 c -0.985831,1.90023 -2.543145,2.8505 -4.67197,2.8505 -1.671627,0 -2.964649,-0.65706 -3.879044,-1.97151 -0.900107,-1.32873 -1.35023,-3.1719 -1.35023,-5.52933 0,-2.68604 0.457011,-4.69347 1.371406,-6.02219 0.914395,-1.34304 2.214752,-2.01433 3.900667,-2.01433 z" />
      <path
         d="m -64.417028,929.19241 q 1.71449,0 2.85034,1.02869 1.13585,1.00726 1.13585,2.59317 0,1.5859 -1.13585,2.61459 -1.13585,1.00727 -2.85034,1.00727 -1.73592,0 -2.871771,-1.0287 -1.114418,-1.02869 -1.114418,-2.59316 0,-1.56447 1.114418,-2.59317 1.135851,-1.02869 2.871771,-1.02869 z"
         style="font-style:normal;font-variant:normal;font-weight:900;font-stretch:normal;font-size:50.3438px;line-height:1.25;font-family:Roboto;-inkscape-font-specification:'Roboto Heavy';fill:#ff8f45;fill-opacity:1;stroke:none;stroke-width:0.264583"
         id="path1204" />
    </g>
    <text
       xml:space="preserve"
       style="font-style:normal;font-weight:normal;font-size:50.3438px;line-height:1.25;font-family:sans-serif;fill:#000000;fill-opacity:1;stroke:none;stroke-width:0.264583"
       x="-1051.4994"
       y="816.26147"
       id="text1188"><tspan
         sodipodi:role="line"
         id="tspan1186"
         x="-1051.4994"
         y="816.26147"
         style="font-style:normal;font-variant:normal;font-weight:bold;font-stretch:normal;font-family:Roboto;-inkscape-font-specification:'Roboto Bold';stroke-width:0.264583"><tspan
           style="font-style:normal;font-variant:normal;font-weight:900;font-stretch:normal;font-family:Roboto;-inkscape-font-specification:'Roboto Heavy'"
           id="tspan1180">Medic</tspan><tspan
           style="font-style:normal;font-variant:normal;font-weight:500;font-stretch:normal;font-family:Roboto;-inkscape-font-specification:'Roboto Medium'"
           id="tspan1182">Ad</tspan><tspan
           style="font-style:normal;font-variant:normal;font-weight:900;font-stretch:normal;font-family:Roboto;-inkscape-font-specification:'Roboto Heavy'"
           id="tspan1184">.</tspan></tspan></text>
    <g
       id="g1259">
      <g
         id="g1229"
         transform="matrix(0.8025467,0,0,0.8025467,312.07902,273.92887)"
         style="stroke-width:1.24603">
        <path
           style="color:#000000;font-style:normal;font-variant:normal;font-weight:normal;font-stretch:normal;font-size:medium;line-height:normal;font-family:sans-serif;font-variant-ligatures:normal;font-variant-position:normal;font-variant-caps:normal;font-variant-numeric:normal;font-variant-alternates:normal;font-variant-east-asian:normal;font-feature-settings:normal;font-variation-settings:normal;text-indent:0;text-align:start;text-decoration:none;text-decoration-line:none;text-decoration-style:solid;text-decoration-color:#000000;letter-spacing:normal;word-spacing:normal;text-transform:none;writing-mode:lr-tb;direction:ltr;text-orientation:mixed;dominant-baseline:auto;baseline-shift:baseline;text-anchor:start;white-space:normal;shape-padding:0;shape-margin:0;inline-size:0;clip-rule:nonzero;display:inline;overflow:visible;visibility:visible;opacity:0.996;isolation:auto;mix-blend-mode:normal;color-interpolation:sRGB;color-interpolation-filters:linearRGB;solid-color:#000000;solid-opacity:1;vector-effect:none;fill:url(#linearGradient1239);fill-opacity:1;fill-rule:nonzero;stroke:none;stroke-width:1.24603;stroke-linecap:butt;stroke-linejoin:round;stroke-miterlimit:4;stroke-dasharray:none;stroke-dashoffset:0;stroke-opacity:1;color-rendering:auto;image-rendering:auto;shape-rendering:auto;text-rendering:auto;enable-background:accumulate;stop-color:#000000;stop-opacity:1"
           d="m -629.20703,881.93945 c -11.65075,0 -21.25781,9.60706 -21.25781,21.25782 v 38.00781 h 15 v -38.00781 c 0,-3.54415 2.71366,-6.25782 6.25781,-6.25782 3.54415,0 6.25586,2.71367 6.25586,6.25782 v 16.75195 c 0,11.65075 9.6051,21.25586 21.25586,21.25586 v -15 c -3.54417,0 -6.25586,-2.7117 -6.25586,-6.25586 v -16.75195 c 0,-3.54417 2.71169,-6.25782 6.25586,-6.25782 3.54414,0 6.25586,2.71367 6.25586,6.25782 v 38.00781 h 15 v -38.00781 c 0,-11.65076 -9.60511,-21.25782 -21.25586,-21.25782 -5.25212,0 -10.02756,2.02292 -13.75586,5.23438 -3.7283,-3.21146 -8.50374,-5.23438 -13.75586,-5.23438 z"
           id="path1225" />
        <path
           style="opacity:0.996;fill:#ff8f45;fill-opacity:1;stroke:none;stroke-width:18.6906;stroke-linecap:square;stroke-linejoin:round;stroke-miterlimit:4;stroke-dasharray:none;stroke-opacity:1"
           d="m -592.11119,881.93995 c 5.26749,2.17067 9.50238,6.40586 11.67268,11.67371 v -11.67371 z"
           id="path1227" />
      </g>
      <g
         id="g1250"
         transform="matrix(0.50344424,0,0,0.50344424,-105.56644,532.40833)"
         style="stroke-width:1.98632">
        <path
           id="path1231"
           style="font-style:normal;font-variant:normal;font-weight:900;font-stretch:normal;font-size:50.3438px;line-height:1.25;font-family:Roboto;-inkscape-font-specification:'Roboto Heavy';fill:#1c1f24;fill-opacity:1;stroke:none;stroke-width:0.525546"
           d="m -166.78003,1007.0408 v 11.7444 c -1.41445,-1.6288 -3.1576,-2.4432 -5.22927,-2.4432 -2.8432,0 -5.05758,1.0576 -6.64348,3.1722 -1.58591,2.1145 -2.37879,5.0075 -2.37879,8.6794 0,3.9004 0.80711,6.9081 2.42159,9.0227 1.61448,2.1145 3.80041,3.1717 6.55788,3.1717 2.28598,0 4.17183,-0.9718 5.65773,-2.9149 l 0.36447,2.486 h 6.49391 v -32.9183 z m 14.84038,0.2361 c -1.18585,0 -2.14989,0.3286 -2.89284,0.9858 -0.74294,0.6572 -1.1146,1.5001 -1.1146,2.5288 0,1.0287 0.37166,1.8716 1.1146,2.5288 0.74295,0.6572 1.70699,0.9857 2.89284,0.9857 1.18586,0 2.15035,-0.3285 2.89329,-0.9857 0.74295,-0.6572 1.11461,-1.5001 1.11461,-2.5288 0,-1.0287 -0.37166,-1.8716 -1.11461,-2.5288 -0.74294,-0.6572 -1.70743,-0.9858 -2.89329,-0.9858 z m -90.67499,1.4786 v 31.2036 h 7.52246 v -7.2864 l -0.7285,-14.9377 7.56481,22.2241 h 4.97202 l 7.54408,-22.2025 -0.72895,14.9161 v 7.2864 h 7.54408 v -31.2036 h -9.90124 l -6.94398,21.7096 -6.96471,-21.7096 z m 48.58445,7.5865 c -2.31456,0 -4.31466,0.5001 -6.00058,1.5002 -1.68592,0.9859 -2.97205,2.3863 -3.85787,4.2008 -0.87153,1.8145 -1.30698,3.9072 -1.30698,6.279 v 0.6001 c 0,3.4004 1.09985,6.1654 3.30012,8.2942 2.20026,2.1145 5.0795,3.1717 8.63706,3.1717 1.90023,0 3.67183,-0.3643 5.31488,-1.093 1.65734,-0.7429 2.93568,-1.7359 3.83579,-2.9789 l -3.30012,-3.9006 c -1.28586,1.6002 -3.07168,2.4004 -5.35767,2.4004 -1.38588,0 -2.51463,-0.3717 -3.38617,-1.1146 -0.87153,-0.743 -1.43591,-1.7644 -1.69308,-3.0645 h 14.35877 v -2.8077 c 0,-3.6147 -0.94293,-6.4293 -2.82887,-8.4438 -1.88594,-2.0288 -4.45775,-3.0433 -7.71528,-3.0433 z m 60.57569,0 c -2.22883,0 -4.15781,0.4859 -5.78658,1.4574 -1.62876,0.9573 -2.87865,2.3361 -3.75019,4.1363 -0.85725,1.786 -1.2858,3.8503 -1.2858,6.1934 v 0.3001 c 0,3.7433 0.97137,6.6725 2.91446,8.7871 1.94309,2.1145 4.60071,3.1717 7.97254,3.1717 2.87177,0 5.21463,-0.8144 7.02913,-2.4432 1.82879,-1.6288 2.74326,-3.7147 2.74326,-6.2579 h -6.77233 c 0.0143,0.9859 -0.25689,1.7572 -0.8141,2.3144 -0.55721,0.5429 -1.34321,0.8146 -2.35761,0.8146 -1.21443,0 -2.1,-0.4502 -2.65722,-1.3503 -0.5572,-0.9001 -0.83618,-2.5147 -0.83618,-4.8436 0,-1.3287 0.05,-2.3717 0.15003,-3.1289 0.31432,-2.386 1.40729,-3.579 3.27894,-3.579 0.98583,0 1.77183,0.3217 2.35761,0.9646 0.58579,0.6429 0.87853,1.5643 0.87853,2.7644 h 6.77233 c 0,-2.8575 -0.88557,-5.1219 -2.65721,-6.7935 -1.77164,-1.6716 -4.16496,-2.5076 -7.17961,-2.5076 z m -22.06414,0.4289 v 23.1882 h 7.24404 v -23.1882 z m -38.55435,5.1432 c 1.14299,0 2.02167,0.3217 2.63603,0.9646 0.61438,0.6286 0.90713,1.5216 0.87854,2.6788 v 0.5573 h -7.28639 c 0.40005,-2.8003 1.65728,-4.2007 3.77182,-4.2007 z m 23.9068,0 c 1.60019,0 2.72894,0.686 3.38616,2.0576 v 8.8294 c -0.68579,1.343 -1.82877,2.0148 -3.42896,2.0148 -2.40029,0 -3.60017,-2.0575 -3.60017,-6.1723 l 0.0212,-1.3286 c 0.18573,-3.6004 1.39295,-5.4009 3.62179,-5.4009 z" />
        <path
           id="path1233"
           style="font-style:normal;font-variant:normal;font-weight:500;font-stretch:normal;font-size:50.3438px;line-height:1.25;font-family:Roboto;-inkscape-font-specification:'Roboto Medium';fill:#1c1f24;fill-opacity:1;stroke:none;stroke-width:0.525546"
           d="m -76.576286,1007.0408 v 11.8732 c -1.514465,-1.7144 -3.500341,-2.572 -5.957776,-2.572 -2.786046,0 -5.007766,1.086 -6.665106,3.2577 -1.657339,2.1574 -2.486013,5.022 -2.486013,8.5939 0,3.7575 0.835559,6.7295 2.507187,8.9154 1.685915,2.186 3.886522,3.279 6.601131,3.279 2.60031,0 4.678877,-0.9429 6.236205,-2.8289 l 0.25725,2.4 h 4.714773 v -32.9183 z m -32.916904,1.7147 -11.78715,31.2036 h 5.6361 l 2.52881,-7.2648 h 12.08721 l 2.550436,7.2648 h 5.657725 l -11.808331,-31.2036 z m 2.42159,6.6223 4.52195,12.9442 h -9.0439 z m 25.866143,5.2293 c 2.128825,0 3.671916,0.9287 4.629171,2.7861 v 9.9008 c -0.985831,1.9002 -2.543145,2.8505 -4.67197,2.8505 -1.671627,0 -2.964649,-0.6571 -3.879044,-1.9715 -0.900107,-1.3288 -1.35023,-3.1719 -1.35023,-5.5294 0,-2.686 0.457011,-4.6934 1.371406,-6.0221 0.914395,-1.3431 2.214752,-2.0144 3.900667,-2.0144 z" />
        <path
           d="m -64.417028,1032.9513 q 1.71449,0 2.85034,1.0287 1.13585,1.0073 1.13585,2.5932 0,1.5859 -1.13585,2.6146 -1.13585,1.0072 -2.85034,1.0072 -1.73592,0 -2.871771,-1.0287 -1.114418,-1.0287 -1.114418,-2.5931 0,-1.5645 1.114418,-2.5932 1.135851,-1.0287 2.871771,-1.0287 z"
           style="font-style:normal;font-variant:normal;font-weight:900;font-stretch:normal;font-size:50.3438px;line-height:1.25;font-family:Roboto;-inkscape-font-specification:'Roboto Heavy';fill:#ff8f45;fill-opacity:1;stroke:none;stroke-width:0.525546"
           id="path1235" />
      </g>
    </g>
    <g
       id="g1300">
      <rect
         style="opacity:0.996;fill:url(#linearGradient1302);fill-opacity:1;stroke:none;stroke-width:15;stroke-linecap:square;stroke-linejoin:round;stroke-miterlimit:4;stroke-dasharray:none;stroke-opacity:1"
         id="rect1261"
         width="62.127441"
         height="62.127441"
         x="-212.91341"
         y="1101.3013"
         rx="17.956911"
         ry="17.956911" />
      <g
         id="g1275"
         transform="matrix(0.50063719,0,0,0.50063719,126.26832,675.99798)"
         style="fill:#ffffff;stroke-width:1.99744">
        <path
           style="color:#000000;font-style:normal;font-variant:normal;font-weight:normal;font-stretch:normal;font-size:medium;line-height:normal;font-family:sans-serif;font-variant-ligatures:normal;font-variant-position:normal;font-variant-caps:normal;font-variant-numeric:normal;font-variant-alternates:normal;font-variant-east-asian:normal;font-feature-settings:normal;font-variation-settings:normal;text-indent:0;text-align:start;text-decoration:none;text-decoration-line:none;text-decoration-style:solid;text-decoration-color:#000000;letter-spacing:normal;word-spacing:normal;text-transform:none;writing-mode:lr-tb;direction:ltr;text-orientation:mixed;dominant-baseline:auto;baseline-shift:baseline;text-anchor:start;white-space:normal;shape-padding:0;shape-margin:0;inline-size:0;clip-rule:nonzero;display:inline;overflow:visible;visibility:visible;opacity:0.996;isolation:auto;mix-blend-mode:normal;color-interpolation:sRGB;color-interpolation-filters:linearRGB;solid-color:#000000;solid-opacity:1;vector-effect:none;fill:#ffffff;fill-opacity:1;fill-rule:nonzero;stroke:none;stroke-width:1.99744;stroke-linecap:butt;stroke-linejoin:round;stroke-miterlimit:4;stroke-dasharray:none;stroke-dashoffset:0;stroke-opacity:1;color-rendering:auto;image-rendering:auto;shape-rendering:auto;text-rendering:auto;enable-background:accumulate;stop-color:#000000;stop-opacity:1"
           d="m -629.20703,881.93945 c -11.65075,0 -21.25781,9.60706 -21.25781,21.25782 v 38.00781 h 15 v -38.00781 c 0,-3.54415 2.71366,-6.25782 6.25781,-6.25782 3.54415,0 6.25586,2.71367 6.25586,6.25782 v 16.75195 c 0,11.65075 9.6051,21.25586 21.25586,21.25586 v -15 c -3.54417,0 -6.25586,-2.7117 -6.25586,-6.25586 v -16.75195 c 0,-3.54417 2.71169,-6.25782 6.25586,-6.25782 3.54414,0 6.25586,2.71367 6.25586,6.25782 v 38.00781 h 15 v -38.00781 c 0,-11.65076 -9.60511,-21.25782 -21.25586,-21.25782 -5.25212,0 -10.02756,2.02292 -13.75586,5.23438 -3.7283,-3.21146 -8.50374,-5.23438 -13.75586,-5.23438 z"
           id="path1271" />
        <path
           style="opacity:0.996;fill:#ffffff;fill-opacity:1;stroke:none;stroke-width:29.9619;stroke-linecap:square;stroke-linejoin:round;stroke-miterlimit:4;stroke-dasharray:none;stroke-opacity:1"
           d="m -592.11119,881.93995 c 5.26749,2.17067 9.50238,6.40586 11.67268,11.67371 v -11.67371 z"
           id="path1273" />
      </g>
    </g>
    <path
       id="path1356"
       style="opacity:0.996;fill:none;stroke:#0055d4;stroke-width:15;stroke-linecap:butt;stroke-linejoin:round;stroke-miterlimit:4;stroke-dasharray:none;stroke-opacity:0.996078"
       d="m -634.96364,470.37601 c -7.59746,0 -13.75641,-6.15895 -13.75641,-13.75641 v -0.87735 -15.87501"
       sodipodi:nodetypes="cc" />
    <path
       id="path1358"
       style="opacity:0.996;fill:none;stroke:#0055d4;stroke-width:15;stroke-linecap:butt;stroke-linejoin:round;stroke-miterlimit:4;stroke-dasharray:none;stroke-opacity:0.996078"
       d="m -662.47646,426.11084 c 7.59746,0 13.75641,6.15895 13.75641,13.75641 v 0.87735 15.87501"
       sodipodi:nodetypes="cc" />
    <path
       id="path1380"
       style="opacity:0.996;fill:none;stroke:#0055d4;stroke-width:15;stroke-linecap:butt;stroke-linejoin:round;stroke-miterlimit:4;stroke-dasharray:none;stroke-opacity:0.996078"
       d="m -611.08248,470.37601 c -7.59746,0 -13.75641,-6.15895 -13.75641,-13.75641 v -0.87735 -15.87501"
       sodipodi:nodetypes="cc" />
    <path
       id="path1382"
       style="opacity:0.996;fill:none;stroke:#0055d4;stroke-width:15;stroke-linecap:butt;stroke-linejoin:round;stroke-miterlimit:4;stroke-dasharray:none;stroke-opacity:0.996078"
       d="m -638.5953,426.11084 c 7.59746,0 13.75641,6.15895 13.75641,13.75641 v 0.87735 15.87501"
       sodipodi:nodetypes="cc" />
    <path
       id="path1384"
       style="opacity:0.996;fill:none;stroke:#0055d4;stroke-width:15;stroke-linecap:butt;stroke-linejoin:round;stroke-miterlimit:4;stroke-dasharray:none;stroke-opacity:0.996078"
       d="m -658.84481,470.37601 c -7.59746,0 -13.75641,-6.15895 -13.75641,-13.75641 v -0.87735 -15.87501"
       sodipodi:nodetypes="cc" />
    <path
       id="path1386"
       style="opacity:0.996;fill:none;stroke:#0055d4;stroke-width:15;stroke-linecap:butt;stroke-linejoin:round;stroke-miterlimit:4;stroke-dasharray:none;stroke-opacity:0.996078"
       d="m -686.35763,426.11084 c 7.59746,0 13.75641,6.15895 13.75641,13.75641 v 0.87735 15.87501"
       sodipodi:nodetypes="cc" />
    <path
       style="color:#000000;font-style:normal;font-variant:normal;font-weight:normal;font-stretch:normal;font-size:medium;line-height:normal;font-family:sans-serif;font-variant-ligatures:normal;font-variant-position:normal;font-variant-caps:normal;font-variant-numeric:normal;font-variant-alternates:normal;font-variant-east-asian:normal;font-feature-settings:normal;font-variation-settings:normal;text-indent:0;text-align:start;text-decoration:none;text-decoration-line:none;text-decoration-style:solid;text-decoration-color:#000000;letter-spacing:normal;word-spacing:normal;text-transform:none;writing-mode:lr-tb;direction:ltr;text-orientation:mixed;dominant-baseline:auto;baseline-shift:baseline;text-anchor:start;white-space:normal;shape-padding:0;shape-margin:0;inline-size:0;clip-rule:nonzero;display:inline;overflow:visible;visibility:visible;opacity:1;isolation:auto;mix-blend-mode:normal;color-interpolation:sRGB;color-interpolation-filters:linearRGB;solid-color:#000000;solid-opacity:1;vector-effect:none;fill:#ff8f45;fill-opacity:1;fill-rule:nonzero;stroke:none;stroke-width:1;stroke-linecap:butt;stroke-linejoin:round;stroke-miterlimit:4;stroke-dasharray:none;stroke-dashoffset:0;stroke-opacity:1;color-rendering:auto;image-rendering:auto;shape-rendering:auto;text-rendering:auto;enable-background:accumulate;stop-color:#000000;stop-opacity:1"
       d="m -702.87885,652.40004 c 5.95093,1.96231 10.77685,6.50346 13.12945,12.27315 v -12.27315 z"
       id="path1405" />
    <path
       id="path1407"
       style="opacity:0.996;fill:none;stroke:#0055d4;stroke-width:15;stroke-linecap:butt;stroke-linejoin:round;stroke-miterlimit:4;stroke-dasharray:none;stroke-opacity:0.996078"
       d="m -706.87302,704.16468 c -7.59746,0 -13.75641,-6.1589 -13.75641,-13.7564 v -0.8773 -15.87504"
       sodipodi:nodetypes="cc" />
    <path
       id="path1409"
       style="opacity:0.996;fill:none;stroke:#0055d4;stroke-width:15;stroke-linecap:butt;stroke-linejoin:round;stroke-miterlimit:4;stroke-dasharray:none;stroke-opacity:0.996078"
       d="m -734.38584,659.89954 c 7.59746,0 13.75641,6.15895 13.75641,13.75641 v 0.87735 15.87498"
       sodipodi:nodetypes="cc" />
    <path
       id="path1411"
       style="opacity:0.996;fill:none;stroke:#0055d4;stroke-width:15;stroke-linecap:butt;stroke-linejoin:round;stroke-miterlimit:4;stroke-dasharray:none;stroke-opacity:0.996078"
       d="m -682.99186,704.16468 c -7.59746,0 -13.75641,-6.1589 -13.75641,-13.7564 v -0.8773 -15.87504"
       sodipodi:nodetypes="cc" />
    <path
       id="path1413"
       style="opacity:0.996;fill:none;stroke:#0055d4;stroke-width:15;stroke-linecap:butt;stroke-linejoin:round;stroke-miterlimit:4;stroke-dasharray:none;stroke-opacity:0.996078"
       d="m -710.50468,659.89954 c 7.59746,0 13.75641,6.15895 13.75641,13.75641 v 0.87735 15.87498"
       sodipodi:nodetypes="cc" />
    <path
       id="path1415"
       style="opacity:0.996;fill:none;stroke:#0055d4;stroke-width:15;stroke-linecap:butt;stroke-linejoin:round;stroke-miterlimit:4;stroke-dasharray:none;stroke-opacity:0.996078"
       d="m -730.75419,704.16468 c -7.59746,0 -13.75641,-6.1589 -13.75641,-13.7564 v -0.8773 -15.87504"
       sodipodi:nodetypes="cc" />
    <path
       id="path1417"
       style="opacity:0.996;fill:none;stroke:#0055d4;stroke-width:15;stroke-linecap:butt;stroke-linejoin:round;stroke-miterlimit:4;stroke-dasharray:none;stroke-opacity:0.996078"
       d="m -758.26701,659.89954 c 7.59746,0 13.75641,6.15895 13.75641,13.75641 v 0.87735 15.87498"
       sodipodi:nodetypes="cc" />
    <g
       id="g1543"
       transform="translate(0.7913541)">
      <g
         id="g1460"
         transform="matrix(0.79378653,0,0,0.79378653,44.694128,115.04673)"
         style="stroke-width:1.25978">
        <path
           style="color:#000000;font-style:normal;font-variant:normal;font-weight:normal;font-stretch:normal;font-size:medium;line-height:normal;font-family:sans-serif;font-variant-ligatures:normal;font-variant-position:normal;font-variant-caps:normal;font-variant-numeric:normal;font-variant-alternates:normal;font-variant-east-asian:normal;font-feature-settings:normal;font-variation-settings:normal;text-indent:0;text-align:start;text-decoration:none;text-decoration-line:none;text-decoration-style:solid;text-decoration-color:#000000;letter-spacing:normal;word-spacing:normal;text-transform:none;writing-mode:lr-tb;direction:ltr;text-orientation:mixed;dominant-baseline:auto;baseline-shift:baseline;text-anchor:start;white-space:normal;shape-padding:0;shape-margin:0;inline-size:0;clip-rule:nonzero;display:inline;overflow:visible;visibility:visible;opacity:1;isolation:auto;mix-blend-mode:normal;color-interpolation:sRGB;color-interpolation-filters:linearRGB;solid-color:#000000;solid-opacity:1;vector-effect:none;fill:#ff8f45;fill-opacity:1;fill-rule:nonzero;stroke:none;stroke-width:1.25978;stroke-linecap:butt;stroke-linejoin:round;stroke-miterlimit:4;stroke-dasharray:none;stroke-dashoffset:0;stroke-opacity:1;color-rendering:auto;image-rendering:auto;shape-rendering:auto;text-rendering:auto;enable-background:accumulate;stop-color:#000000;stop-opacity:1"
           d="m 101.25384,984.86042 c 5.16132,1.70195 9.3469,5.64054 11.38735,10.64466 v -10.64466 z"
           id="path1419" />
        <path
           id="path1421"
           style="color:#000000;font-style:normal;font-variant:normal;font-weight:normal;font-stretch:normal;font-size:medium;line-height:normal;font-family:sans-serif;font-variant-ligatures:normal;font-variant-position:normal;font-variant-caps:normal;font-variant-numeric:normal;font-variant-alternates:normal;font-variant-east-asian:normal;font-feature-settings:normal;font-variation-settings:normal;text-indent:0;text-align:start;text-decoration:none;text-decoration-line:none;text-decoration-style:solid;text-decoration-color:#000000;letter-spacing:normal;word-spacing:normal;text-transform:none;writing-mode:lr-tb;direction:ltr;text-orientation:mixed;dominant-baseline:auto;baseline-shift:baseline;text-anchor:start;white-space:normal;shape-padding:0;shape-margin:0;inline-size:0;clip-rule:nonzero;display:inline;overflow:visible;visibility:visible;opacity:0.996;isolation:auto;mix-blend-mode:normal;color-interpolation:sRGB;color-interpolation-filters:linearRGB;solid-color:#000000;solid-opacity:1;vector-effect:none;fill:url(#linearGradient1468);fill-opacity:1;fill-rule:nonzero;stroke:none;stroke-width:1.25978;stroke-linecap:butt;stroke-linejoin:round;stroke-miterlimit:4;stroke-dasharray:none;stroke-dashoffset:0;stroke-opacity:1;color-rendering:auto;image-rendering:auto;shape-rendering:auto;text-rendering:auto;enable-background:accumulate;stop-color:#000000;stop-opacity:1"
           d="m 53.215571,984.8591 v 13.00979 c 3.073908,0 5.425859,2.35371 5.425859,5.42761 v 0.7606 13.008 0.7606 c 0,10.1048 8.33085,18.4352 18.435668,18.4352 v -13.0093 c -3.073931,0 -5.42586,-2.3519 -5.42586,-5.4259 v -0.7606 -13.7686 c 0,-10.10481 -8.330803,-18.4374 -18.435667,-18.4374 z m 20.712511,0 v 13.00979 c 3.073884,0 5.425859,2.35371 5.425859,5.42761 v 0.7606 13.7686 c 0,10.1048 8.33039,18.4352 18.435207,18.4352 v -13.0093 c -3.073907,0 -5.425858,-2.3519 -5.425858,-5.4259 v -0.7606 -13.008 -0.7606 c 0,-10.10481 -8.330367,-18.4374 -18.435208,-18.4374 z m 20.712051,0 v 13.00979 c 3.073906,0 5.425857,2.35371 5.425857,5.42761 v 0.7606 13.7686 c 0,10.1048 8.33039,18.4352 18.43524,18.4352 v -13.0093 c -3.07394,0 -5.42543,-2.3519 -5.42543,-5.4259 v -0.7606 -13.008 -0.7606 c 0,-10.10481 -8.33083,-18.4374 -18.435667,-18.4374 z" />
      </g>
      <path
         id="path1476"
         style="font-style:normal;font-variant:normal;font-weight:900;font-stretch:normal;font-size:50.3438px;line-height:1.25;font-family:Roboto;-inkscape-font-specification:'Roboto Heavy';fill:#1c1f24;fill-opacity:1;stroke:none;stroke-width:0.264583"
         d="m 225.00715,903.28192 v 11.74436 c -1.41445,-1.62876 -3.1576,-2.44321 -5.22927,-2.44321 -2.8432,0 -5.05758,1.05762 -6.64348,3.17218 -1.58591,2.11453 -2.37879,5.00755 -2.37879,8.6794 0,3.90047 0.80711,6.90818 2.42159,9.02271 1.61448,2.11455 3.80041,3.17171 6.55788,3.17171 2.28598,0 4.17183,-0.97181 5.65773,-2.91491 l 0.36447,2.48603 h 6.49391 v -32.91827 z m 14.84038,0.23609 c -1.18585,0 -2.14989,0.32854 -2.89284,0.98575 -0.74294,0.65722 -1.1146,1.50011 -1.1146,2.52881 0,1.0287 0.37166,1.87159 1.1146,2.52881 0.74295,0.65723 1.70699,0.98575 2.89284,0.98575 1.18586,0 2.15035,-0.32852 2.89329,-0.98575 0.74295,-0.65722 1.11461,-1.50011 1.11461,-2.52881 0,-1.0287 -0.37166,-1.87159 -1.11461,-2.52881 -0.74294,-0.65721 -1.70743,-0.98575 -2.89329,-0.98575 z m -90.67499,1.47862 v 31.20356 h 7.52246 v -7.28639 l -0.7285,-14.93769 7.56481,22.22408 h 4.97202 l 7.54408,-22.20246 -0.72895,14.91607 v 7.28639 h 7.54408 v -31.20356 h -9.90124 l -6.94398,21.70959 -6.96471,-21.70959 z m 48.58445,7.58644 c -2.31456,0 -4.31466,0.50014 -6.00058,1.50026 -1.68592,0.98584 -2.97205,2.38621 -3.85787,4.20071 -0.87153,1.81452 -1.30698,3.9073 -1.30698,6.27902 v 0.60009 c 0,3.4004 1.09985,6.1654 3.30012,8.29421 2.20026,2.11455 5.0795,3.17171 8.63706,3.17171 1.90023,0 3.67183,-0.36432 5.31488,-1.09296 1.65734,-0.74296 2.93568,-1.73588 3.83579,-2.9789 l -3.30012,-3.90067 c -1.28586,1.6002 -3.07168,2.40042 -5.35767,2.40042 -1.38588,0 -2.51463,-0.37166 -3.38617,-1.1146 -0.87153,-0.74296 -1.43591,-1.76435 -1.69308,-3.0645 h 14.35877 v -2.80769 c 0,-3.61472 -0.94293,-6.42926 -2.82887,-8.44378 -1.88594,-2.02883 -4.45775,-3.04332 -7.71528,-3.04332 z m 60.57569,0 c -2.22883,0 -4.15781,0.48591 -5.78658,1.45747 -1.62876,0.95726 -2.87865,2.33606 -3.75019,4.13628 -0.85725,1.78592 -1.2858,3.85028 -1.2858,6.1934 v 0.30006 c 0,3.74329 0.97137,6.67255 2.91446,8.78708 1.94309,2.11455 4.60071,3.17171 7.97254,3.17171 2.87177,0 5.21463,-0.81442 7.02913,-2.44321 1.82879,-1.62876 2.74326,-3.71466 2.74326,-6.25783 h -6.77233 c 0.0143,0.98584 -0.25689,1.75716 -0.8141,2.31436 -0.55721,0.54293 -1.34321,0.81457 -2.35761,0.81457 -1.21443,0 -2.1,-0.45013 -2.65722,-1.35023 -0.5572,-0.90012 -0.83618,-2.51476 -0.83618,-4.84363 0,-1.32873 0.05,-2.37168 0.15003,-3.12891 0.31432,-2.386 1.40729,-3.57898 3.27894,-3.57898 0.98583,0 1.77183,0.32165 2.35761,0.96457 0.58579,0.64292 0.87853,1.56429 0.87853,2.76444 h 6.77233 c 0,-2.85749 -0.88557,-5.12189 -2.65721,-6.79351 -1.77164,-1.67162 -4.16496,-2.50764 -7.17961,-2.50764 z m -22.06414,0.42891 v 23.18821 h 7.24404 v -23.18821 z m -38.55435,5.14323 c 1.14299,0 2.02167,0.32165 2.63603,0.96457 0.61438,0.62864 0.90713,1.52157 0.87854,2.67884 v 0.5573 h -7.28639 c 0.40005,-2.80034 1.65728,-4.20071 3.77182,-4.20071 z m 23.9068,0 c 1.60019,0 2.72894,0.68597 3.38616,2.05755 v 8.82943 c -0.68579,1.34303 -1.82877,2.01477 -3.42896,2.01477 -2.40029,0 -3.60017,-2.05746 -3.60017,-6.17223 l 0.0212,-1.32861 c 0.18573,-3.60042 1.39295,-5.40091 3.62179,-5.40091 z" />
      <path
         id="path1478"
         style="font-style:normal;font-variant:normal;font-weight:500;font-stretch:normal;font-size:50.3438px;line-height:1.25;font-family:Roboto;-inkscape-font-specification:'Roboto Medium';fill:#1c1f24;fill-opacity:1;stroke:none;stroke-width:0.264583"
         d="m 315.21089,903.28192 v 11.87322 c -1.51446,-1.71448 -3.50034,-2.57207 -5.95777,-2.57207 -2.78605,0 -5.00777,1.08607 -6.66511,3.25776 -1.65734,2.15741 -2.48601,5.02196 -2.48601,8.59382 0,3.75759 0.83556,6.72952 2.50719,8.91549 1.68591,2.18597 3.88652,3.27893 6.60113,3.27893 2.60031,0 4.67887,-0.94291 6.2362,-2.82884 l 0.25725,2.39996 h 4.71477 v -32.91827 z m -32.9169,1.71471 -11.78715,31.20356 h 5.6361 l 2.52881,-7.26477 h 12.08721 l 2.55044,7.26477 h 5.65772 l -11.80833,-31.20356 z m 2.42159,6.62231 4.52195,12.94412 h -9.0439 z m 25.86614,5.22927 c 2.12883,0 3.67192,0.9287 4.62917,2.78608 v 9.90078 c -0.98583,1.90023 -2.54314,2.8505 -4.67197,2.8505 -1.67162,0 -2.96465,-0.65706 -3.87904,-1.97151 -0.90011,-1.32873 -1.35023,-3.1719 -1.35023,-5.52933 0,-2.68604 0.45701,-4.69347 1.37141,-6.02219 0.91439,-1.34304 2.21475,-2.01433 3.90066,-2.01433 z" />
      <path
         d="m 327.37015,929.19241 q 1.71449,0 2.85034,1.02869 1.13585,1.00726 1.13585,2.59317 0,1.5859 -1.13585,2.61459 -1.13585,1.00727 -2.85034,1.00727 -1.73592,0 -2.87177,-1.0287 -1.11442,-1.02869 -1.11442,-2.59316 0,-1.56447 1.11442,-2.59317 1.13585,-1.02869 2.87177,-1.02869 z"
         style="font-style:normal;font-variant:normal;font-weight:900;font-stretch:normal;font-size:50.3438px;line-height:1.25;font-family:Roboto;-inkscape-font-specification:'Roboto Heavy';fill:#ff8f45;fill-opacity:1;stroke:none;stroke-width:0.264583"
         id="path1480" />
    </g>
    <g
       id="g1560">
      <g
         id="g1496"
         transform="matrix(0.50344424,0,0,0.50344424,286.22074,532.40833)"
         style="stroke-width:1.98632">
        <path
           id="path1490"
           style="font-style:normal;font-variant:normal;font-weight:900;font-stretch:normal;font-size:50.3438px;line-height:1.25;font-family:Roboto;-inkscape-font-specification:'Roboto Heavy';fill:#1c1f24;fill-opacity:1;stroke:none;stroke-width:0.525546"
           d="m -166.78003,1007.0408 v 11.7444 c -1.41445,-1.6288 -3.1576,-2.4432 -5.22927,-2.4432 -2.8432,0 -5.05758,1.0576 -6.64348,3.1722 -1.58591,2.1145 -2.37879,5.0075 -2.37879,8.6794 0,3.9004 0.80711,6.9081 2.42159,9.0227 1.61448,2.1145 3.80041,3.1717 6.55788,3.1717 2.28598,0 4.17183,-0.9718 5.65773,-2.9149 l 0.36447,2.486 h 6.49391 v -32.9183 z m 14.84038,0.2361 c -1.18585,0 -2.14989,0.3286 -2.89284,0.9858 -0.74294,0.6572 -1.1146,1.5001 -1.1146,2.5288 0,1.0287 0.37166,1.8716 1.1146,2.5288 0.74295,0.6572 1.70699,0.9857 2.89284,0.9857 1.18586,0 2.15035,-0.3285 2.89329,-0.9857 0.74295,-0.6572 1.11461,-1.5001 1.11461,-2.5288 0,-1.0287 -0.37166,-1.8716 -1.11461,-2.5288 -0.74294,-0.6572 -1.70743,-0.9858 -2.89329,-0.9858 z m -90.67499,1.4786 v 31.2036 h 7.52246 v -7.2864 l -0.7285,-14.9377 7.56481,22.2241 h 4.97202 l 7.54408,-22.2025 -0.72895,14.9161 v 7.2864 h 7.54408 v -31.2036 h -9.90124 l -6.94398,21.7096 -6.96471,-21.7096 z m 48.58445,7.5865 c -2.31456,0 -4.31466,0.5001 -6.00058,1.5002 -1.68592,0.9859 -2.97205,2.3863 -3.85787,4.2008 -0.87153,1.8145 -1.30698,3.9072 -1.30698,6.279 v 0.6001 c 0,3.4004 1.09985,6.1654 3.30012,8.2942 2.20026,2.1145 5.0795,3.1717 8.63706,3.1717 1.90023,0 3.67183,-0.3643 5.31488,-1.093 1.65734,-0.7429 2.93568,-1.7359 3.83579,-2.9789 l -3.30012,-3.9006 c -1.28586,1.6002 -3.07168,2.4004 -5.35767,2.4004 -1.38588,0 -2.51463,-0.3717 -3.38617,-1.1146 -0.87153,-0.743 -1.43591,-1.7644 -1.69308,-3.0645 h 14.35877 v -2.8077 c 0,-3.6147 -0.94293,-6.4293 -2.82887,-8.4438 -1.88594,-2.0288 -4.45775,-3.0433 -7.71528,-3.0433 z m 60.57569,0 c -2.22883,0 -4.15781,0.4859 -5.78658,1.4574 -1.62876,0.9573 -2.87865,2.3361 -3.75019,4.1363 -0.85725,1.786 -1.2858,3.8503 -1.2858,6.1934 v 0.3001 c 0,3.7433 0.97137,6.6725 2.91446,8.7871 1.94309,2.1145 4.60071,3.1717 7.97254,3.1717 2.87177,0 5.21463,-0.8144 7.02913,-2.4432 1.82879,-1.6288 2.74326,-3.7147 2.74326,-6.2579 h -6.77233 c 0.0143,0.9859 -0.25689,1.7572 -0.8141,2.3144 -0.55721,0.5429 -1.34321,0.8146 -2.35761,0.8146 -1.21443,0 -2.1,-0.4502 -2.65722,-1.3503 -0.5572,-0.9001 -0.83618,-2.5147 -0.83618,-4.8436 0,-1.3287 0.05,-2.3717 0.15003,-3.1289 0.31432,-2.386 1.40729,-3.579 3.27894,-3.579 0.98583,0 1.77183,0.3217 2.35761,0.9646 0.58579,0.6429 0.87853,1.5643 0.87853,2.7644 h 6.77233 c 0,-2.8575 -0.88557,-5.1219 -2.65721,-6.7935 -1.77164,-1.6716 -4.16496,-2.5076 -7.17961,-2.5076 z m -22.06414,0.4289 v 23.1882 h 7.24404 v -23.1882 z m -38.55435,5.1432 c 1.14299,0 2.02167,0.3217 2.63603,0.9646 0.61438,0.6286 0.90713,1.5216 0.87854,2.6788 v 0.5573 h -7.28639 c 0.40005,-2.8003 1.65728,-4.2007 3.77182,-4.2007 z m 23.9068,0 c 1.60019,0 2.72894,0.686 3.38616,2.0576 v 8.8294 c -0.68579,1.343 -1.82877,2.0148 -3.42896,2.0148 -2.40029,0 -3.60017,-2.0575 -3.60017,-6.1723 l 0.0212,-1.3286 c 0.18573,-3.6004 1.39295,-5.4009 3.62179,-5.4009 z" />
        <path
           id="path1492"
           style="font-style:normal;font-variant:normal;font-weight:500;font-stretch:normal;font-size:50.3438px;line-height:1.25;font-family:Roboto;-inkscape-font-specification:'Roboto Medium';fill:#1c1f24;fill-opacity:1;stroke:none;stroke-width:0.525546"
           d="m -76.576286,1007.0408 v 11.8732 c -1.514465,-1.7144 -3.500341,-2.572 -5.957776,-2.572 -2.786046,0 -5.007766,1.086 -6.665106,3.2577 -1.657339,2.1574 -2.486013,5.022 -2.486013,8.5939 0,3.7575 0.835559,6.7295 2.507187,8.9154 1.685915,2.186 3.886522,3.279 6.601131,3.279 2.60031,0 4.678877,-0.9429 6.236205,-2.8289 l 0.25725,2.4 h 4.714773 v -32.9183 z m -32.916904,1.7147 -11.78715,31.2036 h 5.6361 l 2.52881,-7.2648 h 12.08721 l 2.550436,7.2648 h 5.657725 l -11.808331,-31.2036 z m 2.42159,6.6223 4.52195,12.9442 h -9.0439 z m 25.866143,5.2293 c 2.128825,0 3.671916,0.9287 4.629171,2.7861 v 9.9008 c -0.985831,1.9002 -2.543145,2.8505 -4.67197,2.8505 -1.671627,0 -2.964649,-0.6571 -3.879044,-1.9715 -0.900107,-1.3288 -1.35023,-3.1719 -1.35023,-5.5294 0,-2.686 0.457011,-4.6934 1.371406,-6.0221 0.914395,-1.3431 2.214752,-2.0144 3.900667,-2.0144 z" />
        <path
           d="m -64.417028,1032.9513 q 1.71449,0 2.85034,1.0287 1.13585,1.0073 1.13585,2.5932 0,1.5859 -1.13585,2.6146 -1.13585,1.0072 -2.85034,1.0072 -1.73592,0 -2.871771,-1.0287 -1.114418,-1.0287 -1.114418,-2.5931 0,-1.5645 1.114418,-2.5932 1.135851,-1.0287 2.871771,-1.0287 z"
           style="font-style:normal;font-variant:normal;font-weight:900;font-stretch:normal;font-size:50.3438px;line-height:1.25;font-family:Roboto;-inkscape-font-specification:'Roboto Heavy';fill:#ff8f45;fill-opacity:1;stroke:none;stroke-width:0.525546"
           id="path1494" />
      </g>
      <g
         id="g1526"
         transform="matrix(0.79378653,0,0,0.79378653,142.5046,203.90641)"
         style="stroke-width:1.25978">
        <path
           style="color:#000000;font-style:normal;font-variant:normal;font-weight:normal;font-stretch:normal;font-size:medium;line-height:normal;font-family:sans-serif;font-variant-ligatures:normal;font-variant-position:normal;font-variant-caps:normal;font-variant-numeric:normal;font-variant-alternates:normal;font-variant-east-asian:normal;font-feature-settings:normal;font-variation-settings:normal;text-indent:0;text-align:start;text-decoration:none;text-decoration-line:none;text-decoration-style:solid;text-decoration-color:#000000;letter-spacing:normal;word-spacing:normal;text-transform:none;writing-mode:lr-tb;direction:ltr;text-orientation:mixed;dominant-baseline:auto;baseline-shift:baseline;text-anchor:start;white-space:normal;shape-padding:0;shape-margin:0;inline-size:0;clip-rule:nonzero;display:inline;overflow:visible;visibility:visible;opacity:1;isolation:auto;mix-blend-mode:normal;color-interpolation:sRGB;color-interpolation-filters:linearRGB;solid-color:#000000;solid-opacity:1;vector-effect:none;fill:#ff8f45;fill-opacity:1;fill-rule:nonzero;stroke:none;stroke-width:1.25978;stroke-linecap:butt;stroke-linejoin:round;stroke-miterlimit:4;stroke-dasharray:none;stroke-dashoffset:0;stroke-opacity:1;color-rendering:auto;image-rendering:auto;shape-rendering:auto;text-rendering:auto;enable-background:accumulate;stop-color:#000000;stop-opacity:1"
           d="m 102.70165,980.21425 c 5.95093,1.96231 10.77685,6.50346 13.12945,12.27315 v -12.27315 z"
           id="path1522" />
        <path
           id="path1524"
           style="color:#000000;font-style:normal;font-variant:normal;font-weight:normal;font-stretch:normal;font-size:medium;line-height:normal;font-family:sans-serif;font-variant-ligatures:normal;font-variant-position:normal;font-variant-caps:normal;font-variant-numeric:normal;font-variant-alternates:normal;font-variant-east-asian:normal;font-feature-settings:normal;font-variation-settings:normal;text-indent:0;text-align:start;text-decoration:none;text-decoration-line:none;text-decoration-style:solid;text-decoration-color:#000000;letter-spacing:normal;word-spacing:normal;text-transform:none;writing-mode:lr-tb;direction:ltr;text-orientation:mixed;dominant-baseline:auto;baseline-shift:baseline;text-anchor:start;white-space:normal;shape-padding:0;shape-margin:0;inline-size:0;clip-rule:nonzero;display:inline;overflow:visible;visibility:visible;opacity:0.996;isolation:auto;mix-blend-mode:normal;color-interpolation:sRGB;color-interpolation-filters:linearRGB;solid-color:#000000;solid-opacity:1;vector-effect:none;fill:url(#linearGradient1535);fill-opacity:1;fill-rule:nonzero;stroke:none;stroke-width:4.76139;stroke-linecap:butt;stroke-linejoin:round;stroke-miterlimit:4;stroke-dasharray:none;stroke-dashoffset:0;stroke-opacity:1;color-rendering:auto;image-rendering:auto;shape-rendering:auto;text-rendering:auto;enable-background:accumulate;stop-color:#000000;stop-opacity:1"
           d="m 1325.0371,315.75977 v 56.69335 c 13.3953,0 23.6445,10.25687 23.6445,23.65235 v 3.31445 56.68555 3.31445 c 0,44.03414 36.3037,80.33594 80.3379,80.33594 v -56.69141 c -13.3954,0 -23.6445,-10.24913 -23.6445,-23.64453 v -3.31445 -60 c 0,-44.03441 -36.3035,-80.3457 -80.3379,-80.3457 z m 90.2598,0 v 56.69335 c 13.3952,0 23.6445,10.25687 23.6445,23.65235 v 3.31445 60 c 0,44.03414 36.3017,80.33594 80.3359,80.33594 v -56.69141 c -13.3953,0 -23.6445,-10.24913 -23.6445,-23.64453 v -3.31445 -56.68555 -3.31445 c 0,-44.03441 -36.3016,-80.3457 -80.3359,-80.3457 z m 90.2578,0 v 56.69335 c 13.3953,0 23.6445,10.25687 23.6445,23.65235 v 3.31445 60 c 0,44.03414 36.3017,80.33594 80.336,80.33594 v -56.69141 c -13.3954,0 -23.6426,-10.24913 -23.6426,-23.64453 v -3.31445 -56.68555 -3.31445 c 0,-44.03441 -36.3036,-80.3457 -80.3379,-80.3457 z"
           transform="matrix(0.26458333,0,0,0.26458333,-303.26854,896.66794)" />
      </g>
    </g>
    <g
       id="g1570">
      <rect
         style="opacity:0.996;fill:url(#linearGradient1510);fill-opacity:1;stroke:none;stroke-width:15;stroke-linecap:square;stroke-linejoin:round;stroke-miterlimit:4;stroke-dasharray:none;stroke-opacity:1"
         id="rect1500"
         width="62.127441"
         height="62.127441"
         x="178.87378"
         y="1101.3013"
         rx="17.956911"
         ry="17.956911" />
      <g
         id="g1549"
         transform="matrix(0.4629274,0,0,0.4629274,170.6114,664.87982)"
         style="fill:#ffffff;stroke-width:2.16016">
        <path
           style="color:#000000;font-style:normal;font-variant:normal;font-weight:normal;font-stretch:normal;font-size:medium;line-height:normal;font-family:sans-serif;font-variant-ligatures:normal;font-variant-position:normal;font-variant-caps:normal;font-variant-numeric:normal;font-variant-alternates:normal;font-variant-east-asian:normal;font-feature-settings:normal;font-variation-settings:normal;text-indent:0;text-align:start;text-decoration:none;text-decoration-line:none;text-decoration-style:solid;text-decoration-color:#000000;letter-spacing:normal;word-spacing:normal;text-transform:none;writing-mode:lr-tb;direction:ltr;text-orientation:mixed;dominant-baseline:auto;baseline-shift:baseline;text-anchor:start;white-space:normal;shape-padding:0;shape-margin:0;inline-size:0;clip-rule:nonzero;display:inline;overflow:visible;visibility:visible;opacity:1;isolation:auto;mix-blend-mode:normal;color-interpolation:sRGB;color-interpolation-filters:linearRGB;solid-color:#000000;solid-opacity:1;vector-effect:none;fill:#ffffff;fill-opacity:1;fill-rule:nonzero;stroke:none;stroke-width:2.16016;stroke-linecap:butt;stroke-linejoin:round;stroke-miterlimit:4;stroke-dasharray:none;stroke-dashoffset:0;stroke-opacity:1;color-rendering:auto;image-rendering:auto;shape-rendering:auto;text-rendering:auto;enable-background:accumulate;stop-color:#000000;stop-opacity:1"
           d="m 102.70165,980.21425 c 5.95093,1.96231 10.77685,6.50346 13.12945,12.27315 v -12.27315 z"
           id="path1545" />
        <path
           id="path1547"
           style="color:#000000;font-style:normal;font-variant:normal;font-weight:normal;font-stretch:normal;font-size:medium;line-height:normal;font-family:sans-serif;font-variant-ligatures:normal;font-variant-position:normal;font-variant-caps:normal;font-variant-numeric:normal;font-variant-alternates:normal;font-variant-east-asian:normal;font-feature-settings:normal;font-variation-settings:normal;text-indent:0;text-align:start;text-decoration:none;text-decoration-line:none;text-decoration-style:solid;text-decoration-color:#000000;letter-spacing:normal;word-spacing:normal;text-transform:none;writing-mode:lr-tb;direction:ltr;text-orientation:mixed;dominant-baseline:auto;baseline-shift:baseline;text-anchor:start;white-space:normal;shape-padding:0;shape-margin:0;inline-size:0;clip-rule:nonzero;display:inline;overflow:visible;visibility:visible;opacity:0.996;isolation:auto;mix-blend-mode:normal;color-interpolation:sRGB;color-interpolation-filters:linearRGB;solid-color:#000000;solid-opacity:1;vector-effect:none;fill:#ffffff;fill-opacity:1;fill-rule:nonzero;stroke:none;stroke-width:8.1644;stroke-linecap:butt;stroke-linejoin:round;stroke-miterlimit:4;stroke-dasharray:none;stroke-dashoffset:0;stroke-opacity:1;color-rendering:auto;image-rendering:auto;shape-rendering:auto;text-rendering:auto;enable-background:accumulate;stop-color:#000000;stop-opacity:1"
           d="m 1325.0371,315.75977 v 56.69335 c 13.3953,0 23.6445,10.25687 23.6445,23.65235 v 3.31445 56.68555 3.31445 c 0,44.03414 36.3037,80.33594 80.3379,80.33594 v -56.69141 c -13.3954,0 -23.6445,-10.24913 -23.6445,-23.64453 v -3.31445 -60 c 0,-44.03441 -36.3035,-80.3457 -80.3379,-80.3457 z m 90.2598,0 v 56.69335 c 13.3952,0 23.6445,10.25687 23.6445,23.65235 v 3.31445 60 c 0,44.03414 36.3017,80.33594 80.3359,80.33594 v -56.69141 c -13.3953,0 -23.6445,-10.24913 -23.6445,-23.64453 v -3.31445 -56.68555 -3.31445 c 0,-44.03441 -36.3016,-80.3457 -80.3359,-80.3457 z m 90.2578,0 v 56.69335 c 13.3953,0 23.6445,10.25687 23.6445,23.65235 v 3.31445 60 c 0,44.03414 36.3017,80.33594 80.336,80.33594 v -56.69141 c -13.3954,0 -23.6426,-10.24913 -23.6426,-23.64453 v -3.31445 -56.68555 -3.31445 c 0,-44.03441 -36.3036,-80.3457 -80.3379,-80.3457 z"
           transform="matrix(0.26458333,0,0,0.26458333,-303.26854,896.66794)" />
      </g>
    </g>
    <path
       style="color:#000000;font-style:normal;font-variant:normal;font-weight:normal;font-stretch:normal;font-size:medium;line-height:normal;font-family:sans-serif;font-variant-ligatures:normal;font-variant-position:normal;font-variant-caps:normal;font-variant-numeric:normal;font-variant-alternates:normal;font-variant-east-asian:normal;font-feature-settings:normal;font-variation-settings:normal;text-indent:0;text-align:start;text-decoration:none;text-decoration-line:none;text-decoration-style:solid;text-decoration-color:#000000;letter-spacing:normal;word-spacing:normal;text-transform:none;writing-mode:lr-tb;direction:ltr;text-orientation:mixed;dominant-baseline:auto;baseline-shift:baseline;text-anchor:start;white-space:normal;shape-padding:0;shape-margin:0;inline-size:0;clip-rule:nonzero;display:inline;overflow:visible;visibility:visible;opacity:1;isolation:auto;mix-blend-mode:normal;color-interpolation:sRGB;color-interpolation-filters:linearRGB;solid-color:#000000;solid-opacity:1;vector-effect:none;fill:#ff8f45;fill-opacity:1;fill-rule:nonzero;stroke:none;stroke-width:1;stroke-linecap:butt;stroke-linejoin:round;stroke-miterlimit:4;stroke-dasharray:none;stroke-dashoffset:0;stroke-opacity:1;color-rendering:auto;image-rendering:auto;shape-rendering:auto;text-rendering:auto;enable-background:accumulate;stop-color:#000000;stop-opacity:1"
       d="m -691.56971,881.77106 c 5.95093,1.96231 10.77685,6.50346 13.12945,12.27315 v -12.27315 z"
       id="path1572" />
    <path
       id="path1576"
       style="opacity:0.996;fill:none;stroke:#0055d4;stroke-width:15;stroke-linecap:butt;stroke-linejoin:round;stroke-miterlimit:4;stroke-dasharray:none;stroke-opacity:0.996078"
       d="m -723.0767,889.27056 c 7.59746,0 13.75641,6.15895 13.75641,13.75641 v 0.87735 15.87498 m 13.75641,13.7564 c -7.59746,0 -13.75641,-6.1589 -13.75641,-13.7564 v -0.8773 -15.87504" />
    <path
       id="path1580"
       style="opacity:0.996;fill:none;stroke:#0055d4;stroke-width:15;stroke-linecap:butt;stroke-linejoin:round;stroke-miterlimit:4;stroke-dasharray:none;stroke-opacity:0.996078"
       d="m -699.19554,889.27056 c 7.59746,0 13.75641,6.15895 13.75641,13.75641 v 0.87735 15.87498 m 13.75641,13.7564 c -7.59746,0 -13.75641,-6.1589 -13.75641,-13.7564 v -0.8773 -15.87504" />
    <path
       id="path1584"
       style="opacity:0.996;fill:none;stroke:#0055d4;stroke-width:15;stroke-linecap:butt;stroke-linejoin:round;stroke-miterlimit:4;stroke-dasharray:none;stroke-opacity:0.996078"
       d="m -746.95787,889.27056 c 7.59746,0 13.75641,6.15895 13.75641,13.75641 v 0.87735 15.87498 m 13.75641,13.7564 c -7.59746,0 -13.75641,-6.1589 -13.75641,-13.7564 v -0.8773 -15.87504" />
    <g
       id="g955"
       transform="matrix(0.41821594,0,0,0.41821594,-68.427917,1160.9745)"
       style="stroke-width:2.39111">
      <g
         id="g947"
         transform="matrix(0.67427159,0,0,0.67427159,135.32142,302.00122)"
         style="stroke-width:3.54621">
        <path
           style="color:#000000;font-style:normal;font-variant:normal;font-weight:normal;font-stretch:normal;font-size:medium;line-height:normal;font-family:sans-serif;font-variant-ligatures:normal;font-variant-position:normal;font-variant-caps:normal;font-variant-numeric:normal;font-variant-alternates:normal;font-variant-east-asian:normal;font-feature-settings:normal;font-variation-settings:normal;text-indent:0;text-align:start;text-decoration:none;text-decoration-line:none;text-decoration-style:solid;text-decoration-color:#000000;letter-spacing:normal;word-spacing:normal;text-transform:none;writing-mode:lr-tb;direction:ltr;text-orientation:mixed;dominant-baseline:auto;baseline-shift:baseline;text-anchor:start;white-space:normal;shape-padding:0;shape-margin:0;inline-size:0;clip-rule:nonzero;display:inline;overflow:visible;visibility:visible;opacity:0.996;isolation:auto;mix-blend-mode:normal;color-interpolation:sRGB;color-interpolation-filters:linearRGB;solid-color:#000000;solid-opacity:1;vector-effect:none;fill:url(#linearGradient957);fill-opacity:1;fill-rule:nonzero;stroke:none;stroke-width:3.54621;stroke-linecap:butt;stroke-linejoin:round;stroke-miterlimit:4;stroke-dasharray:none;stroke-dashoffset:0;stroke-opacity:1;color-rendering:auto;image-rendering:auto;shape-rendering:auto;text-rendering:auto;enable-background:accumulate;stop-color:#000000;stop-opacity:1"
           d="m -629.20703,881.93945 c -11.65075,0 -21.25781,9.60706 -21.25781,21.25782 v 38.00781 h 15 v -38.00781 c 0,-3.54415 2.71366,-6.25782 6.25781,-6.25782 3.54415,0 6.25586,2.71367 6.25586,6.25782 v 16.75195 c 0,11.65075 9.6051,21.25586 21.25586,21.25586 v -15 c -3.54417,0 -6.25586,-2.7117 -6.25586,-6.25586 v -16.75195 c 0,-3.54417 2.71169,-6.25782 6.25586,-6.25782 3.54414,0 6.25586,2.71367 6.25586,6.25782 v 38.00781 h 15 v -38.00781 c 0,-11.65076 -9.60511,-21.25782 -21.25586,-21.25782 -5.25212,0 -10.02756,2.02292 -13.75586,5.23438 -3.7283,-3.21146 -8.50374,-5.23438 -13.75586,-5.23438 z"
           id="path943" />
        <path
           style="opacity:0.996;fill:#ff8f45;fill-opacity:1;stroke:none;stroke-width:53.1932;stroke-linecap:square;stroke-linejoin:round;stroke-miterlimit:4;stroke-dasharray:none;stroke-opacity:1"
           d="m -592.11119,881.93995 c 5.26749,2.17067 9.50238,6.40586 11.67268,11.67371 v -11.67371 z"
           id="path945" />
      </g>
      <path
         id="path949"
         style="font-style:normal;font-variant:normal;font-weight:900;font-stretch:normal;font-size:50.3438px;line-height:1.25;font-family:Roboto;-inkscape-font-specification:'Roboto Heavy';fill:#1c1f24;fill-opacity:1;stroke:none;stroke-width:0.632647"
         d="m -166.78003,903.28192 v 11.74436 c -1.41445,-1.62876 -3.1576,-2.44321 -5.22927,-2.44321 -2.8432,0 -5.05758,1.05762 -6.64348,3.17218 -1.58591,2.11453 -2.37879,5.00755 -2.37879,8.6794 0,3.90047 0.80711,6.90818 2.42159,9.02271 1.61448,2.11455 3.80041,3.17171 6.55788,3.17171 2.28598,0 4.17183,-0.97181 5.65773,-2.91491 l 0.36447,2.48603 h 6.49391 v -32.91827 z m 14.84038,0.23609 c -1.18585,0 -2.14989,0.32854 -2.89284,0.98575 -0.74294,0.65722 -1.1146,1.50011 -1.1146,2.52881 0,1.0287 0.37166,1.87159 1.1146,2.52881 0.74295,0.65723 1.70699,0.98575 2.89284,0.98575 1.18586,0 2.15035,-0.32852 2.89329,-0.98575 0.74295,-0.65722 1.11461,-1.50011 1.11461,-2.52881 0,-1.0287 -0.37166,-1.87159 -1.11461,-2.52881 -0.74294,-0.65721 -1.70743,-0.98575 -2.89329,-0.98575 z m -90.67499,1.47862 v 31.20356 h 7.52246 v -7.28639 l -0.7285,-14.93769 7.56481,22.22408 h 4.97202 l 7.54408,-22.20246 -0.72895,14.91607 v 7.28639 h 7.54408 v -31.20356 h -9.90124 l -6.94398,21.70959 -6.96471,-21.70959 z m 48.58445,7.58644 c -2.31456,0 -4.31466,0.50014 -6.00058,1.50026 -1.68592,0.98584 -2.97205,2.38621 -3.85787,4.20071 -0.87153,1.81452 -1.30698,3.9073 -1.30698,6.27902 v 0.60009 c 0,3.4004 1.09985,6.1654 3.30012,8.29421 2.20026,2.11455 5.0795,3.17171 8.63706,3.17171 1.90023,0 3.67183,-0.36432 5.31488,-1.09296 1.65734,-0.74296 2.93568,-1.73588 3.83579,-2.9789 l -3.30012,-3.90067 c -1.28586,1.6002 -3.07168,2.40042 -5.35767,2.40042 -1.38588,0 -2.51463,-0.37166 -3.38617,-1.1146 -0.87153,-0.74296 -1.43591,-1.76435 -1.69308,-3.0645 h 14.35877 v -2.80769 c 0,-3.61472 -0.94293,-6.42926 -2.82887,-8.44378 -1.88594,-2.02883 -4.45775,-3.04332 -7.71528,-3.04332 z m 60.57569,0 c -2.22883,0 -4.15781,0.48591 -5.78658,1.45747 -1.62876,0.95726 -2.87865,2.33606 -3.75019,4.13628 -0.85725,1.78592 -1.2858,3.85028 -1.2858,6.1934 v 0.30006 c 0,3.74329 0.97137,6.67255 2.91446,8.78708 1.94309,2.11455 4.60071,3.17171 7.97254,3.17171 2.87177,0 5.21463,-0.81442 7.02913,-2.44321 1.82879,-1.62876 2.74326,-3.71466 2.74326,-6.25783 h -6.77233 c 0.0143,0.98584 -0.25689,1.75716 -0.8141,2.31436 -0.55721,0.54293 -1.34321,0.81457 -2.35761,0.81457 -1.21443,0 -2.1,-0.45013 -2.65722,-1.35023 -0.5572,-0.90012 -0.83618,-2.51476 -0.83618,-4.84363 0,-1.32873 0.05,-2.37168 0.15003,-3.12891 0.31432,-2.386 1.40729,-3.57898 3.27894,-3.57898 0.98583,0 1.77183,0.32165 2.35761,0.96457 0.58579,0.64292 0.87853,1.56429 0.87853,2.76444 h 6.77233 c 0,-2.85749 -0.88557,-5.12189 -2.65721,-6.79351 -1.77164,-1.67162 -4.16496,-2.50764 -7.17961,-2.50764 z m -22.06414,0.42891 v 23.18821 h 7.24404 v -23.18821 z m -38.55435,5.14323 c 1.14299,0 2.02167,0.32165 2.63603,0.96457 0.61438,0.62864 0.90713,1.52157 0.87854,2.67884 v 0.5573 h -7.28639 c 0.40005,-2.80034 1.65728,-4.20071 3.77182,-4.20071 z m 23.9068,0 c 1.60019,0 2.72894,0.68597 3.38616,2.05755 v 8.82943 c -0.68579,1.34303 -1.82877,2.01477 -3.42896,2.01477 -2.40029,0 -3.60017,-2.05746 -3.60017,-6.17223 l 0.0212,-1.32861 c 0.18573,-3.60042 1.39295,-5.40091 3.62179,-5.40091 z" />
      <path
         id="path951"
         style="font-style:normal;font-variant:normal;font-weight:500;font-stretch:normal;font-size:50.3438px;line-height:1.25;font-family:Roboto;-inkscape-font-specification:'Roboto Medium';fill:#1c1f24;fill-opacity:1;stroke:none;stroke-width:0.632647"
         d="m -76.576286,903.28192 v 11.87322 c -1.514465,-1.71448 -3.500341,-2.57207 -5.957776,-2.57207 -2.786046,0 -5.007766,1.08607 -6.665106,3.25776 -1.657339,2.15741 -2.486013,5.02196 -2.486013,8.59382 0,3.75759 0.835559,6.72952 2.507187,8.91549 1.685915,2.18597 3.886522,3.27893 6.601131,3.27893 2.60031,0 4.678877,-0.94291 6.236205,-2.82884 l 0.25725,2.39996 h 4.714773 v -32.91827 z m -32.916904,1.71471 -11.78715,31.20356 h 5.6361 l 2.52881,-7.26477 h 12.08721 l 2.550436,7.26477 h 5.657725 l -11.808331,-31.20356 z m 2.42159,6.62231 4.52195,12.94412 h -9.0439 z m 25.866143,5.22927 c 2.128825,0 3.671916,0.9287 4.629171,2.78608 v 9.90078 c -0.985831,1.90023 -2.543145,2.8505 -4.67197,2.8505 -1.671627,0 -2.964649,-0.65706 -3.879044,-1.97151 -0.900107,-1.32873 -1.35023,-3.1719 -1.35023,-5.52933 0,-2.68604 0.457011,-4.69347 1.371406,-6.02219 0.914395,-1.34304 2.214752,-2.01433 3.900667,-2.01433 z" />
      <path
         d="m -64.417028,929.19241 q 1.71449,0 2.85034,1.02869 1.13585,1.00726 1.13585,2.59317 0,1.5859 -1.13585,2.61459 -1.13585,1.00727 -2.85034,1.00727 -1.73592,0 -2.871771,-1.0287 -1.114418,-1.02869 -1.114418,-2.59316 0,-1.56447 1.114418,-2.59317 1.135851,-1.02869 2.871771,-1.02869 z"
         style="font-style:normal;font-variant:normal;font-weight:900;font-stretch:normal;font-size:50.3438px;line-height:1.25;font-family:Roboto;-inkscape-font-specification:'Roboto Heavy';fill:#ff8f45;fill-opacity:1;stroke:none;stroke-width:0.632647"
         id="path953" />
    </g>
    <path
       id="path1034"
       style="opacity:0.996;fill:none;stroke:#0055d4;stroke-width:15;stroke-linecap:square;stroke-linejoin:round;stroke-miterlimit:4;stroke-dasharray:none;stroke-opacity:1"
       d="m 283.07602,333.82223 c 0,-7.59746 6.15895,-13.75641 13.75641,-13.75641 7.59745,0 13.7564,6.15896 13.7564,13.75641 v 0 30.50878"
       sodipodi:nodetypes="csscc" />
  </g>
</svg>
